<?xml version="1.0" standalone="no"?>
<!DOCTYPE svg PUBLIC "-//W3C//DTD SVG 20010904//EN"
 "http://www.w3.org/TR/2001/REC-SVG-20010904/DTD/svg10.dtd">
<svg version="1.0" xmlns="http://www.w3.org/2000/svg"
 width="400.000000pt" height="400.000000pt" viewBox="0 0 400.000000 400.000000"
 preserveAspectRatio="xMidYMid meet">
<metadata>
Created by potrace 1.11, written by Peter Selinger 2001-2013
</metadata>
<g transform="translate(0.000000,400.000000) scale(0.100000,-0.100000)"
fill="#000000" stroke="none">
<path d="M1 3808 c0 -105 5 -188 10 -188 5 0 27 -18 48 -41 29 -29 49 -41 70
-41 17 -1 31 -5 31 -10 0 -4 10 -8 23 -8 16 0 18 -3 8 -9 -11 -7 -11 -9 0 -14
8 -4 1 -3 -15 0 -22 4 -27 3 -24 -8 3 -8 11 -13 18 -11 8 2 10 -3 7 -13 -9
-22 10 -18 23 5 6 11 16 20 22 20 7 0 6 -6 -3 -16 -11 -13 -9 -15 17 -10 16 4
23 3 17 0 -18 -8 -16 -24 2 -24 8 0 15 -7 15 -17 0 -9 3 -13 6 -10 4 4 20 -3
35 -14 16 -11 29 -17 29 -12 0 4 4 2 8 -5 13 -20 44 -3 37 19 -4 11 -2 19 4
19 17 0 13 -31 -6 -53 -17 -19 -17 -20 4 -15 32 8 35 -3 11 -42 -12 -20 -16
-36 -10 -38 6 -2 2 -18 -10 -40 -12 -20 -16 -32 -8 -25 13 12 39 7 53 -11 6
-8 10 -7 14 2 2 6 9 10 14 6 5 -3 9 3 9 13 1 18 22 53 32 53 3 0 8 -9 11 -20
3 -13 14 -20 31 -20 29 0 76 -42 76 -68 0 -9 -4 -23 -9 -31 -7 -10 -11 -6 -16
17 -8 36 -30 59 -40 42 -4 -6 0 -17 9 -23 13 -11 12 -15 -8 -38 -21 -24 -56
-49 -70 -49 -2 0 -6 15 -8 32 -2 24 -9 34 -23 36 -14 2 -16 1 -7 -6 7 -5 11
-20 8 -35 -2 -14 -2 -35 1 -46 4 -18 7 -18 20 -6 16 17 39 20 47 6 10 -15 44
-1 61 25 19 29 36 31 53 3 11 -17 16 -18 28 -8 12 10 13 9 8 -7 -7 -18 -7 -19
14 -1 12 11 18 26 15 35 -4 14 -3 14 5 3 7 -10 6 -21 -5 -38 -9 -13 -14 -25
-12 -27 9 -9 138 7 133 16 -4 6 4 5 16 -2 12 -6 32 -9 44 -5 23 6 55 10 161
20 92 7 136 16 131 24 -3 4 4 12 15 19 16 10 19 9 19 -3 0 -8 5 -15 11 -15 5
0 8 4 5 9 -3 5 1 12 10 15 24 9 28 7 14 -9 -11 -13 -7 -15 26 -15 47 0 279 27
305 35 20 7 20 10 24 85 1 31 -3 49 -14 57 -15 11 -14 12 1 13 11 0 20 -10 24
-25 5 -19 11 -24 24 -20 11 4 28 -4 46 -20 28 -26 45 -31 58 -17 4 4 11 7 14
7 13 1 82 37 82 44 0 3 17 7 37 9 20 1 41 8 45 15 6 9 8 9 8 -1 0 -13 32 -12
155 5 72 11 149 4 162 -14 11 -15 13 -15 19 0 3 9 14 15 25 14 18 -1 18 -2 -3
-24 -20 -22 -19 -53 2 -53 6 0 9 -4 6 -9 -3 -5 19 -9 49 -10 42 0 53 3 49 14
-3 7 2 25 12 40 16 25 16 26 -2 41 -10 9 -13 13 -7 9 18 -9 13 45 -5 68 -16
18 -48 24 -37 7 3 -5 0 -10 -7 -11 -7 0 -3 -4 10 -9 26 -11 29 -30 5 -30 -22
1 -57 46 -50 64 3 7 1 19 -3 26 -9 14 10 40 30 40 7 0 8 -6 0 -19 -13 -26 -13
-31 4 -31 8 0 18 9 21 20 7 22 20 26 30 10 3 -5 14 -10 24 -10 30 0 46 -26 30
-47 -13 -17 -13 -17 7 0 11 9 22 17 25 17 2 0 2 -23 0 -51 -2 -39 0 -50 10
-47 7 2 16 15 19 29 l6 24 13 -24 c7 -13 10 -36 7 -52 -6 -31 1 -59 15 -59 5
0 9 7 9 16 0 12 4 14 13 7 6 -5 22 -10 35 -11 19 -1 21 3 16 24 -4 17 -1 26
11 30 11 5 15 14 11 29 -4 16 -1 25 11 29 14 6 15 9 4 15 -11 7 -9 11 8 21 21
11 61 87 61 116 0 8 -7 14 -15 14 -23 0 -18 26 10 56 27 29 29 61 4 56 -8 -2
-11 -1 -7 3 4 4 3 18 -2 31 -8 21 -7 24 13 24 20 1 20 2 5 11 -22 12 -24 33
-3 25 8 -3 15 -1 15 4 0 6 6 10 14 10 7 0 16 9 19 20 3 11 16 24 29 29 27 10
51 36 54 58 1 8 10 20 19 27 9 6 18 31 20 59 3 26 10 57 15 67 10 19 6 20
-154 20 -143 0 -165 -2 -160 -15 5 -11 2 -13 -10 -9 -9 3 -16 10 -16 15 0 14
-136 11 -147 -3 -6 -7 -13 -25 -17 -40 -5 -23 -3 -28 13 -28 30 0 39 -21 26
-65 l-12 -39 -15 24 c-9 14 -19 42 -22 63 -4 20 -11 37 -17 37 -5 0 -9 6 -8
13 4 35 -2 47 -27 47 -23 0 -24 -1 -10 -16 9 -8 16 -23 16 -33 0 -9 4 -21 8
-26 5 -6 14 -30 21 -55 7 -25 20 -59 28 -77 8 -18 13 -38 10 -45 -3 -7 -6 -2
-6 11 -1 16 -5 21 -16 17 -9 -3 -15 0 -15 8 0 18 -27 29 -33 13 -2 -8 -5 -8
-11 1 -4 7 -2 12 3 12 18 0 13 18 -11 40 -12 11 -28 18 -34 16 -18 -7 -49 30
-34 39 7 4 16 1 21 -6 5 -8 9 -9 9 -4 -1 16 -26 45 -40 45 -7 0 -10 -6 -7 -14
3 -8 0 -17 -7 -19 -9 -3 -12 -15 -9 -31 4 -18 1 -26 -9 -26 -8 0 -19 -10 -25
-22 -9 -22 -11 -21 -22 15 -7 20 -17 37 -22 37 -13 0 -11 37 2 45 5 4 8 12 6
18 -2 6 8 21 22 33 l26 23 -297 0 c-164 1 -297 -3 -297 -7 7 -42 -28 -57 -81
-36 -22 9 -40 21 -40 26 0 6 -7 8 -15 4 -8 -3 -15 -1 -15 4 0 5 -99 9 -225 10
l-226 1 3 -46 c2 -31 7 -44 16 -40 6 2 12 0 12 -6 0 -6 -9 -13 -21 -16 -11 -3
-18 -11 -15 -19 3 -7 1 -16 -3 -19 -5 -3 -12 3 -15 12 -6 15 -8 15 -17 3 -8
-11 -9 -10 -4 8 3 12 2 22 -3 22 -6 0 -20 11 -33 25 -13 13 -29 25 -36 25 -6
0 -14 6 -17 13 -3 6 -3 2 0 -10 4 -19 2 -22 -13 -16 -10 3 -26 15 -36 25 -14
14 -22 16 -32 8 -11 -9 -12 -7 -8 9 5 21 2 21 -138 20 -79 0 -138 -3 -131 -6
6 -2 10 -9 7 -13 -3 -5 -11 -7 -18 -4 -7 2 -13 -3 -14 -13 -1 -10 -4 -29 -8
-43 -5 -19 -4 -22 4 -10 6 8 11 11 11 6 0 -5 6 -4 13 2 15 12 67 7 77 -8 9
-14 42 -1 34 14 -3 6 6 -4 21 -21 27 -33 45 -42 45 -22 0 6 6 17 14 24 12 12
16 11 31 -5 10 -11 24 -20 32 -20 7 0 13 -6 13 -13 0 -7 9 -20 20 -30 22 -19
24 -26 11 -45 -6 -10 -14 -6 -33 16 -17 20 -38 32 -66 37 -37 6 -44 3 -78 -29
-36 -34 -39 -53 -4 -21 15 14 21 14 51 1 l34 -15 -25 -10 -25 -10 23 -7 c15
-4 21 -12 18 -21 -4 -10 -1 -13 13 -8 30 9 143 -61 121 -75 -7 -4 -6 -16 5
-36 8 -16 15 -23 15 -15 0 10 8 7 25 -9 14 -13 22 -26 19 -29 -3 -3 -9 1 -13
8 -7 11 -11 9 -21 -9 -13 -25 -4 -42 11 -20 8 11 12 12 16 2 2 -6 9 -9 15 -6
6 4 13 1 17 -5 11 -17 37 -4 38 20 1 12 -5 32 -13 45 -9 13 -14 29 -11 36 3 8
6 6 6 -5 1 -11 13 -22 31 -28 17 -6 30 -18 30 -26 0 -8 4 -12 9 -9 4 3 17 -2
27 -10 18 -15 18 -15 -3 -11 -40 9 -45 -16 -12 -51 18 -19 28 -39 25 -48 -4
-10 6 -19 34 -30 25 -10 37 -20 33 -30 -3 -8 5 -18 21 -25 32 -15 33 -22 2
-38 -16 -9 -22 -19 -19 -32 3 -11 0 -19 -7 -19 -16 0 -5 61 13 72 9 6 9 8 -1
8 -7 0 -20 -7 -28 -15 -20 -19 -65 -20 -58 -1 3 7 -2 16 -10 19 -9 4 -16 1
-16 -5 0 -7 -7 -3 -15 8 -10 12 -14 14 -13 4 3 -16 -32 -20 -45 -5 -5 6 -6 -3
-2 -19 5 -26 4 -28 -9 -17 -9 8 -16 23 -17 35 0 20 -1 20 -10 -2 -8 -20 -13
-23 -40 -17 -32 7 -32 7 -27 -26 6 -32 4 -34 -23 -36 -26 -2 -28 0 -19 17 9
16 7 20 -7 21 -10 1 -22 1 -27 0 -5 -1 -17 6 -27 15 -20 18 -27 6 -8 -13 9 -9
0 -11 -34 -8 -54 4 -124 50 -119 77 2 13 -1 16 -12 12 -12 -5 -13 -10 -5 -25
5 -11 7 -24 4 -29 -3 -5 0 -7 8 -4 10 3 16 -3 19 -20 8 -40 -2 -75 -18 -69 -8
3 -14 9 -14 15 0 5 4 7 8 4 4 -2 9 5 9 16 2 16 -1 18 -10 9 -21 -21 -29 -11
-22 27 6 35 6 36 -9 17 -15 -20 -15 -20 -16 1 0 11 -5 25 -12 32 -9 9 -8 12 6
12 9 0 15 4 11 10 -3 5 -11 7 -18 5 -7 -3 -20 7 -30 21 -15 20 -16 28 -6 40
25 31 19 91 -11 100 -37 11 -50 18 -50 26 0 6 -7 8 -15 4 -9 -3 -15 0 -15 10
0 11 -6 15 -18 12 -15 -4 -18 -1 -14 17 2 13 -1 26 -7 29 -6 4 -11 16 -11 27
0 10 -5 19 -11 19 -6 0 -9 9 -6 20 3 13 -3 24 -20 35 -20 13 -23 22 -18 46 4
18 3 29 -4 29 -6 0 -11 -5 -11 -11 0 -6 -7 -17 -15 -25 -13 -13 -13 -18 1 -40
18 -27 4 -33 -20 -8 -13 12 -14 20 -5 36 9 17 8 24 -3 32 -8 6 -17 19 -21 29
-4 10 -13 17 -20 14 -22 -8 -46 12 -67 55 -24 51 -25 54 -3 37 15 -12 16 -12
10 3 -7 19 15 30 48 24 14 -2 19 -10 17 -27 -1 -19 0 -21 8 -9 7 12 12 7 25
-23 17 -42 30 -50 21 -12 -6 22 -3 25 18 25 25 0 71 -38 60 -49 -3 -3 -8 -1
-12 4 -4 6 -19 16 -34 22 -23 10 -26 10 -21 -2 3 -8 9 -15 15 -15 5 0 6 -4 3
-10 -3 -5 6 -12 21 -16 18 -5 22 -9 13 -15 -10 -6 -9 -10 6 -15 11 -4 24 -9
29 -12 5 -3 6 3 3 14 -7 18 -7 18 8 0 13 -18 13 -22 -5 -41 -24 -25 -26 -51
-5 -59 9 -3 15 0 15 9 0 28 20 15 21 -12 0 -25 1 -26 9 -8 5 11 9 16 9 10 1
-5 5 -4 10 4 10 16 31 6 31 -15 0 -8 5 -12 10 -9 19 12 -3 85 -25 85 -6 0 -20
10 -31 21 -19 21 -19 22 4 15 34 -11 27 11 -10 31 l-33 17 25 6 c14 4 35 3 48
-2 51 -18 56 -3 13 38 -16 15 -28 32 -27 38 2 6 1 8 -1 4 -10 -17 -55 -8 -60
12 -5 20 -12 20 -174 18 l-170 -3 2 -187z m219 172 c0 -5 -4 -10 -10 -10 -5 0
-10 5 -10 10 0 6 5 10 10 10 6 0 10 -4 10 -10z m1564 -5 c-4 -8 -8 -15 -10
-15 -2 0 -4 7 -4 15 0 8 4 15 10 15 5 0 7 -7 4 -15z m-1509 -6 c12 -18 -3 -22
-20 -5 -14 14 -14 16 -1 16 8 0 18 -5 21 -11z m915 1 c0 -5 -2 -10 -4 -10 -3
0 -8 5 -11 10 -3 6 -1 10 4 10 6 0 11 -4 11 -10z m815 -39 c-7 -12 38 -61 56
-61 17 0 40 -55 32 -77 -5 -12 -7 -12 -14 -1 -7 10 -14 7 -33 -13 -18 -20 -22
-29 -13 -38 6 -6 14 -35 17 -64 4 -44 8 -52 26 -55 16 -2 23 -12 26 -33 5 -35
-2 -37 -30 -4 -12 13 -33 27 -47 31 -14 3 -25 12 -25 19 0 8 -8 11 -20 8 -11
-3 -26 0 -34 6 -10 8 -22 8 -42 1 -26 -9 -27 -9 -11 4 16 12 15 13 -15 11 -25
-2 -34 -7 -36 -24 -3 -18 -6 -20 -18 -10 -9 7 -14 8 -14 1 0 -6 -10 -12 -22
-14 -13 -2 -23 -10 -22 -18 1 -10 -9 -16 -28 -17 -23 -2 -29 1 -24 13 3 9 6
20 6 25 0 5 7 9 15 9 16 0 18 5 9 36 -6 23 -49 48 -66 38 -5 -4 -5 3 2 16 10
19 18 21 48 17 21 -3 48 -9 61 -13 20 -6 22 -4 17 13 -7 22 11 25 47 9 33 -15
86 3 103 35 14 27 14 33 0 47 -12 15 -13 20 -1 42 8 14 14 33 15 42 0 15 12
25 33 27 5 1 6 -3 2 -8z m-541 -16 c-4 -8 -11 -12 -16 -9 -6 4 -5 10 3 15 19
12 19 11 13 -6z m-234 -45 c0 -5 -5 -10 -11 -10 -5 0 -7 5 -4 10 3 6 8 10 11
10 2 0 4 -4 4 -10z m1260 0 c0 -5 -4 -10 -10 -10 -5 0 -10 5 -10 10 0 6 5 10
10 10 6 0 10 -4 10 -10z m97 -16 c3 -8 11 -13 18 -10 13 5 28 -31 19 -46 -8
-12 -22 -10 -27 5 -2 6 -3 0 -1 -15 2 -15 -1 -30 -6 -33 -6 -3 -10 -1 -10 4 0
6 -8 11 -18 11 -22 0 -42 19 -42 38 0 12 2 12 17 1 15 -13 16 -11 10 10 -9 36
27 69 40 35z m-1614 -29 c-3 -9 -8 -14 -10 -11 -3 3 -2 9 2 15 9 16 15 13 8
-4z m1524 8 c-4 -3 -3 -11 2 -17 5 -6 12 -28 16 -50 6 -31 5 -38 -6 -34 -8 3
-13 16 -11 31 1 14 -2 28 -8 32 -14 9 -13 45 2 45 6 0 8 -3 5 -7z m-2373 -10
c4 -5 13 -8 19 -8 5 0 12 -5 14 -12 2 -6 -2 -10 -9 -9 -25 5 -48 18 -48 27 0
11 14 12 24 2z m826 3 c0 -3 -4 -8 -10 -11 -5 -3 -10 -1 -10 4 0 6 5 11 10 11
6 0 10 -2 10 -4z m200 -6 c0 -5 -2 -10 -4 -10 -3 0 -8 5 -11 10 -3 6 -1 10 4
10 6 0 11 -4 11 -10z m30 -10 c0 -5 -5 -10 -11 -10 -5 0 -7 5 -4 10 3 6 8 10
11 10 2 0 4 -4 4 -10z m-790 -25 c0 -8 -7 -15 -15 -15 -9 0 -12 6 -9 15 4 8
10 15 15 15 5 0 9 -7 9 -15z m468 -18 c4 -19 -6 -21 -27 -8 -16 10 -5 34 12
28 7 -2 13 -11 15 -20z m-593 2 c11 -17 -1 -21 -15 -4 -8 9 -8 15 -2 15 6 0
14 -5 17 -11z m1145 1 c0 -5 -5 -10 -11 -10 -5 0 -7 5 -4 10 3 6 8 10 11 10 2
0 4 -4 4 -10z m170 -10 c-6 -11 -16 -20 -23 -20 -7 0 -6 4 3 10 11 7 11 10 2
10 -7 0 -10 5 -7 10 3 6 13 10 21 10 12 0 12 -4 4 -20z m53 -4 c4 -10 1 -13
-9 -9 -15 6 -19 23 -5 23 5 0 11 -7 14 -14z m821 -27 c4 -20 1 -29 -10 -33
-14 -5 -15 -4 -5 8 8 10 9 15 1 18 -6 2 -8 11 -4 21 8 21 9 20 18 -14z m-1514
11 c0 -5 -2 -10 -4 -10 -3 0 -8 5 -11 10 -3 6 -1 10 4 10 6 0 11 -4 11 -10z
m27 -32 c-3 -7 -5 -2 -5 12 0 14 2 19 5 13 2 -7 2 -19 0 -25z m573 24 c0 -5
-7 -9 -15 -9 -8 0 -12 4 -9 9 3 4 9 8 15 8 5 0 9 -4 9 -8z m106 -37 c-9 -9
-16 -13 -16 -8 0 12 22 34 28 28 2 -2 -3 -11 -12 -20z m-1349 -27 c-3 -8 -6
-5 -6 6 -1 11 2 17 5 13 3 -3 4 -12 1 -19z m1083 12 c13 -8 13 -10 -2 -10 -9
0 -20 5 -23 10 -8 13 5 13 25 0z m1193 -11 c17 -19 17 -20 1 -17 -9 1 -18 11
-20 21 -3 22 -2 21 19 -4z m-1243 1 c0 -5 -5 -10 -11 -10 -5 0 -7 5 -4 10 3 6
8 10 11 10 2 0 4 -4 4 -10z m115 -10 c3 -5 -1 -10 -10 -10 -9 0 -13 5 -10 10
3 6 8 10 10 10 2 0 7 -4 10 -10z m457 -52 c-12 -13 -22 -17 -22 -11 0 15 31
46 38 38 3 -3 -4 -15 -16 -27z m-670 5 c-6 -2 -10 -9 -6 -14 3 -5 0 -9 -5 -9
-12 0 -14 13 -4 23 3 4 11 7 17 6 6 0 5 -3 -2 -6z m328 -20 c0 -22 -2 -25 -10
-13 -5 8 -10 11 -10 7 0 -5 -5 -5 -10 -2 -8 5 -7 11 1 21 18 22 29 17 29 -13z
m128 -11 c-2 -9 -17 -19 -33 -22 -17 -4 -40 -12 -52 -18 -17 -9 -22 -9 -27 4
-9 22 -8 24 9 24 8 0 15 8 15 18 0 12 2 14 8 4 9 -13 42 -7 42 8 0 5 9 6 20 3
12 -3 20 -12 18 -21z m-438 -2 c0 -5 -5 -10 -11 -10 -5 0 -7 5 -4 10 3 6 8 10
11 10 2 0 4 -4 4 -10z m1210 -9 c0 -6 -4 -13 -10 -16 -5 -3 -10 1 -10 9 0 9 5
16 10 16 6 0 10 -4 10 -9z m-1150 -15 c0 -2 3 -11 6 -20 4 -11 0 -16 -12 -16
-11 0 -15 -3 -8 -8 18 -12 22 -36 9 -49 -10 -9 -14 -9 -19 2 -3 8 -1 15 4 15
6 0 10 5 10 11 0 7 -9 9 -23 5 -18 -4 -23 -1 -24 14 -1 14 5 20 19 20 14 0 18
5 14 15 -3 9 0 15 9 15 8 0 15 -2 15 -4z m540 -21 c0 -7 -16 -28 -36 -47 -19
-18 -44 -48 -56 -66 -11 -18 -23 -31 -26 -28 -2 3 1 12 7 20 7 8 9 21 5 27 -4
7 -3 9 3 6 11 -7 49 41 45 56 -1 4 1 6 6 6 23 -4 32 4 32 27 0 14 4 23 10 19
6 -3 10 -12 10 -20z m-215 -15 c3 -5 -3 -10 -14 -10 -12 0 -21 5 -21 10 0 6 6
10 14 10 8 0 18 -4 21 -10z m50 -20 c3 -5 -1 -10 -9 -10 -9 0 -16 5 -16 10 0
6 4 10 9 10 6 0 13 -4 16 -10z m-195 -14 c0 -8 -5 -18 -10 -21 -6 -4 -8 -10
-5 -15 7 -12 -36 -3 -49 10 -7 7 -5 10 6 10 8 0 21 7 28 15 16 19 30 19 30 1z
m-234 -32 c-3 -8 -2 -12 3 -9 5 3 12 -3 15 -13 3 -10 15 -18 26 -19 16 -1 20
2 15 18 -4 11 -2 19 5 19 6 0 8 -4 5 -10 -3 -5 -2 -10 4 -10 6 0 8 -8 4 -17
-6 -16 -3 -15 17 2 20 17 23 18 17 3 -4 -11 -2 -18 6 -18 8 0 6 -4 -3 -10 -12
-8 -12 -10 5 -10 19 -1 19 -1 2 -14 -16 -12 -22 -12 -45 0 -23 12 -28 12 -38
-1 -16 -21 -31 -19 -38 8 -9 31 -43 70 -56 62 -6 -3 -8 -11 -5 -16 4 -5 2 -9
-4 -9 -35 0 -16 46 22 53 43 8 49 7 43 -9z m274 -4 c0 -5 -7 -10 -16 -10 -8 0
-12 5 -9 10 3 6 10 10 16 10 5 0 9 -4 9 -10z m995 -20 c-3 -5 -10 -10 -16 -10
-5 0 -9 5 -9 10 0 6 7 10 16 10 8 0 12 -4 9 -10z m-1057 -12 c17 -17 42 -19
48 -4 8 20 51 7 85 -25 36 -34 40 -35 32 -11 -3 11 0 9 11 -6 10 -12 22 -19
28 -16 6 4 8 2 5 -4 -11 -16 4 -44 19 -38 16 6 19 -10 4 -19 -6 -4 -8 -15 -5
-26 10 -30 -3 -41 -29 -24 -21 14 -39 42 -46 70 -1 6 -7 19 -13 30 -6 11 -10
23 -9 28 2 7 -13 11 -30 8 -5 0 -8 6 -8 14 0 14 -3 14 -30 0 -17 -9 -46 -14
-67 -12 -29 3 -37 8 -38 25 -2 24 23 30 43 10z m-1028 -13 c0 -8 4 -15 10 -15
5 0 15 -10 21 -22 11 -21 11 -22 -4 -10 -9 8 -21 11 -27 7 -5 -3 -11 -1 -11 4
-3 21 -4 26 -12 39 -5 8 -3 12 7 12 9 0 16 -7 16 -15z m2195 -5 c3 -6 -4 -10
-17 -10 -18 0 -20 2 -8 10 19 12 18 12 25 0z m-731 -26 c4 -11 2 -15 -8 -11
-8 3 -17 -1 -20 -9 -3 -8 -10 -14 -16 -14 -6 0 -4 7 4 16 9 8 14 20 11 25 -4
5 0 9 8 9 8 0 18 -7 21 -16z m376 -22 c0 -10 -6 -19 -14 -19 -8 0 -14 9 -13
19 1 10 7 18 14 18 7 0 13 -8 13 -18z m-1035 -3 c9 -13 5 -16 -25 -21 -14 -1
-28 -10 -32 -18 -5 -13 -7 -12 -7 2 -2 34 49 63 64 37z m285 7 c0 -11 -19 -15
-25 -6 -3 5 1 10 9 10 9 0 16 -2 16 -4z m-205 -36 c1 -16 -3 -30 -7 -30 -4 0
-8 14 -8 30 0 17 3 30 8 30 4 0 7 -13 7 -30z m910 0 c3 -6 -1 -7 -9 -4 -18 7
-21 14 -7 14 6 0 13 -4 16 -10z m83 -21 c-2 -7 -10 -4 -18 7 -9 11 -10 15 -2
10 7 -4 12 -2 13 6 0 10 2 10 6 1 2 -7 3 -18 1 -24z m-1698 11 c0 -5 -2 -10
-4 -10 -3 0 -8 5 -11 10 -3 6 -1 10 4 10 6 0 11 -4 11 -10z m260 -10 c0 -5 -4
-10 -10 -10 -5 0 -10 5 -10 10 0 6 5 10 10 10 6 0 10 -4 10 -10z m200 1 c0 -5
-9 -11 -20 -14 -22 -6 -28 8 -7 16 19 8 27 8 27 -2z m155 -9 c-3 -3 -11 0 -18
7 -9 10 -8 11 6 5 10 -3 15 -9 12 -12z m1135 -3 c0 -6 -4 -7 -10 -4 -5 3 -10
11 -10 16 0 6 5 7 10 4 6 -3 10 -11 10 -16z m-1724 -21 c-7 -5 -5 -8 7 -8 20
0 23 -15 5 -26 -6 -4 -14 -2 -16 5 -3 9 -7 9 -17 1 -10 -8 -15 -6 -20 9 -7 24
2 44 16 36 5 -4 9 -1 9 5 0 7 5 6 14 -2 10 -9 11 -15 2 -20z m315 5 c-12 -20
-14 -14 -5 12 4 9 9 14 11 11 3 -2 0 -13 -6 -23z m212 14 c6 -17 -16 -47 -34
-46 -10 0 -11 2 -1 6 6 2 12 16 12 29 0 26 15 33 23 11z m102 -27 c3 -5 1 -10
-4 -10 -6 0 -11 5 -11 10 0 6 2 10 4 10 3 0 8 -4 11 -10z m1098 -1 c-6 -6 -9
-19 -6 -28 5 -14 3 -13 -13 2 -16 15 -17 19 -4 27 21 13 36 12 23 -1z m-1953
-18 c0 -5 -7 -12 -16 -15 -14 -5 -15 -4 -4 9 14 17 20 19 20 6z m802 -13 c-7
-7 -12 -8 -12 -2 0 14 12 26 19 19 2 -3 -1 -11 -7 -17z m-535 -50 c19 4 24 2
18 -8 -4 -7 -2 -16 5 -20 8 -5 0 -8 -21 -7 -45 3 -63 20 -54 55 l7 27 10 -26
c7 -21 13 -25 35 -21z m206 -2 c4 -10 1 -13 -8 -9 -8 3 -12 9 -9 14 7 12 11
11 17 -5z m47 -6 c0 -5 -4 -10 -10 -10 -5 0 -10 5 -10 10 0 6 5 10 10 10 6 0
10 -4 10 -10z m-310 -34 c0 -3 -4 -8 -10 -11 -5 -3 -10 -1 -10 4 0 6 5 11 10
11 6 0 10 -2 10 -4z m230 -10 c0 -2 -7 -7 -16 -10 -8 -3 -12 -2 -9 4 6 10 25
14 25 6z m-137 -56 c-3 -12 -8 -19 -11 -16 -5 6 5 36 12 36 2 0 2 -9 -1 -20z"/>
<path d="M3310 3948 c-18 -29 -33 -64 -34 -78 -1 -14 -5 -31 -10 -39 -5 -8 -4
-16 4 -21 7 -5 9 -16 5 -29 -7 -22 -6 -22 23 -7 26 14 31 14 42 1 8 -10 9 -15
2 -15 -6 0 -9 -7 -5 -15 3 -10 1 -15 -7 -13 -6 2 -17 -13 -24 -32 -7 -19 -17
-34 -24 -32 -7 1 -12 -2 -12 -8 0 -5 5 -10 10 -10 6 0 10 -8 10 -17 0 -9 3
-14 6 -10 4 3 15 -4 25 -16 l19 -22 25 28 24 27 9 -32 8 -32 17 37 c17 35 57
69 57 48 0 -5 -7 -12 -16 -15 -11 -4 -14 -14 -9 -34 3 -15 -1 -47 -10 -72 -10
-27 -12 -46 -6 -50 14 -8 -12 -80 -35 -97 -26 -19 -15 -23 37 -11 46 11 47 12
53 57 3 25 9 64 14 86 l8 40 6 -35 c6 -35 3 -96 -7 -137 -8 -35 24 -29 36 6
14 40 38 46 262 68 l187 18 0 257 c0 240 -1 258 -18 258 -9 0 -23 -9 -30 -21
-7 -12 -16 -18 -19 -15 -3 3 0 12 7 21 11 13 0 15 -99 15 -82 0 -111 -3 -111
-12 0 -7 -16 -44 -35 -83 -30 -61 -35 -67 -41 -47 -4 15 -12 21 -21 18 -11 -5
-13 -1 -8 15 7 20 12 45 14 60 1 4 8 10 17 13 12 4 14 1 9 -14 -4 -11 -4 -20
-1 -20 10 0 35 57 29 64 -4 3 -84 6 -179 6 l-172 0 -32 -52z m57 -108 c1 -11
-4 -20 -13 -20 -8 0 -14 -4 -14 -10 0 -5 -10 -10 -22 -10 -21 0 -21 2 7 20 17
11 26 20 22 20 -5 0 -5 5 -2 10 10 16 21 11 22 -10z m163 -90 c-20 -13 -33
-13 -25 0 3 6 14 10 23 10 15 0 15 -2 2 -10z m-160 -40 c0 -13 -28 -25 -38
-16 -3 4 0 11 8 16 20 13 30 12 30 0z m-27 -68 c-3 -12 -10 -22 -15 -22 -5 0
-6 5 -3 10 3 6 1 10 -4 10 -18 0 -12 18 7 22 22 6 22 6 15 -20z"/>
<path d="M1564 3968 c-11 -17 6 -22 22 -7 13 14 13 16 -1 16 -9 0 -18 -4 -21
-9z"/>
<path d="M155 3920 c3 -5 8 -10 11 -10 2 0 4 5 4 10 0 6 -5 10 -11 10 -5 0 -7
-4 -4 -10z"/>
<path d="M455 3820 c4 -6 11 -8 16 -5 14 9 11 15 -7 15 -8 0 -12 -5 -9 -10z"/>
<path d="M3277 3713 c-4 -3 -7 -11 -7 -17 0 -6 5 -5 12 2 6 6 9 14 7 17 -3 3
-9 2 -12 -2z"/>
<path d="M414 3703 c4 -9 1 -13 -10 -13 -13 0 -14 -3 -4 -15 16 -19 26 -19 33
-1 3 8 -2 20 -11 28 -11 9 -14 10 -8 1z"/>
<path d="M545 3700 c-3 -6 -17 -7 -30 -4 -12 3 -26 1 -29 -5 -4 -6 -3 -11 3
-11 5 0 16 -2 24 -5 7 -3 25 3 38 14 13 11 19 20 12 21 -6 0 -15 -5 -18 -10z"/>
<path d="M3382 3590 c0 -14 2 -19 5 -12 2 6 2 18 0 25 -3 6 -5 1 -5 -13z"/>
<path d="M535 3530 c3 -5 11 -10 16 -10 6 0 7 5 4 10 -3 6 -11 10 -16 10 -6 0
-7 -4 -4 -10z"/>
<path d="M130 3453 c0 -10 -12 -31 -26 -46 -14 -16 -23 -31 -19 -35 3 -3 10 0
14 7 5 8 19 12 33 9 22 -4 25 -1 25 27 0 17 -6 36 -14 43 -10 10 -13 9 -13 -5z"/>
<path d="M530 3435 c-20 -24 -6 -28 15 -5 10 11 13 20 8 20 -6 0 -16 -7 -23
-15z"/>
<path d="M851 3413 c7 -10 15 -20 16 -22 2 -2 3 3 3 11 0 9 -7 19 -16 22 -15
6 -15 4 -3 -11z"/>
<path d="M180 3395 c0 -1 16 -19 35 -39 l35 -37 0 29 c0 24 -6 30 -35 39 -19
6 -35 10 -35 8z"/>
<path d="M990 3390 c0 -5 7 -10 16 -10 8 0 12 5 9 10 -3 6 -10 10 -16 10 -5 0
-9 -4 -9 -10z"/>
<path d="M285 3380 c-3 -5 1 -10 9 -10 9 0 16 5 16 10 0 6 -4 10 -9 10 -6 0
-13 -4 -16 -10z"/>
<path d="M645 3371 c-3 -5 -1 -12 5 -16 5 -3 10 1 10 9 0 18 -6 21 -15 7z"/>
<path d="M136 3361 c-4 -6 -11 -9 -16 -6 -4 3 -11 -2 -14 -11 -11 -29 -6 -37
12 -21 23 21 36 22 28 2 -3 -8 -1 -15 4 -15 6 0 10 7 10 15 0 8 5 14 11 13 6
-2 14 3 17 11 3 10 0 12 -13 7 -10 -4 -22 -2 -25 5 -6 8 -9 8 -14 0z"/>
<path d="M307 3359 c-9 -6 -15 -14 -12 -20 4 -5 13 -2 22 6 19 20 14 27 -10
14z"/>
<path d="M19 3360 c-5 -28 -4 -52 2 -55 11 -7 19 39 9 49 -6 6 -10 8 -11 6z"/>
<path d="M55 3350 c-3 -5 -1 -10 4 -10 6 0 11 5 11 10 0 6 -2 10 -4 10 -3 0
-8 -4 -11 -10z"/>
<path d="M194 3324 c4 -10 2 -13 -6 -8 -7 5 -9 -1 -4 -20 4 -15 2 -26 -4 -26
-5 0 -10 -7 -10 -15 0 -14 2 -14 23 0 13 8 27 12 32 8 7 -7 6 0 -11 57 -3 11
-10 20 -16 20 -5 0 -7 -7 -4 -16z"/>
<path d="M320 3330 c0 -5 7 -10 15 -10 8 0 15 5 15 10 0 6 -7 10 -15 10 -8 0
-15 -4 -15 -10z"/>
<path d="M3468 3313 c7 -3 16 -2 19 1 4 3 -2 6 -13 5 -11 0 -14 -3 -6 -6z"/>
<path d="M265 3300 c3 -5 12 -7 20 -3 21 7 19 13 -6 13 -11 0 -18 -4 -14 -10z"/>
<path d="M36 3275 c4 -8 11 -15 16 -15 6 0 5 6 -2 15 -7 8 -14 15 -16 15 -2 0
-1 -7 2 -15z"/>
<path d="M90 3284 c0 -1 11 -9 24 -17 22 -15 24 -15 28 1 4 13 -2 17 -24 17
-15 0 -28 -1 -28 -1z"/>
<path d="M263 3272 c-25 -4 -30 -17 -10 -26 9 -5 9 -7 0 -12 -10 -4 -9 -9 2
-21 8 -8 13 -19 10 -24 -10 -15 5 -10 24 9 10 9 21 26 25 37 6 16 9 17 16 5 7
-11 9 -10 8 7 -1 12 -7 19 -15 16 -7 -3 -13 -1 -13 4 0 10 -9 11 -47 5z"/>
<path d="M0 3213 c0 -23 5 -45 10 -48 6 -3 10 -11 10 -16 0 -6 -4 -7 -10 -4
-7 4 -10 -64 -9 -197 1 -212 4 -219 34 -75 7 35 22 53 88 102 15 11 27 26 27
33 0 7 5 10 10 7 18 -11 10 11 -10 30 -11 10 -20 28 -20 39 -1 21 -1 21 -20
-2 -15 -18 -19 -19 -22 -7 -3 14 -6 13 -25 -4 -29 -27 -33 -26 -31 4 2 23 6
27 24 24 23 -3 32 69 12 89 -9 9 -9 12 0 12 7 0 12 9 12 20 0 16 -4 18 -24 11
-17 -7 -27 -5 -40 7 -15 15 -16 13 -16 -25z m40 -23 c0 -5 -2 -10 -4 -10 -3 0
-8 5 -11 10 -3 6 -1 10 4 10 6 0 11 -4 11 -10z m74 -141 c-3 -6 -1 -15 6 -19
7 -4 8 -10 3 -13 -5 -3 -15 -2 -23 3 -11 7 -11 11 -1 24 15 18 26 21 15 5z"/>
<path d="M211 3234 c0 -11 3 -14 6 -6 3 7 2 16 -1 19 -3 4 -6 -2 -5 -13z"/>
<path d="M1665 3200 c10 -11 20 -18 23 -16 5 6 -23 36 -34 36 -4 0 1 -9 11
-20z"/>
<path d="M235 3190 c-3 -5 -1 -10 4 -10 6 0 11 5 11 10 0 6 -2 10 -4 10 -3 0
-8 -4 -11 -10z"/>
<path d="M1604 3173 c11 -11 46 -14 46 -3 0 6 -12 10 -27 10 -14 0 -23 -3 -19
-7z"/>
<path d="M260 3158 c0 -4 9 -8 20 -8 11 0 20 4 20 9 0 6 -9 9 -20 8 -11 -1
-20 -5 -20 -9z"/>
<path d="M163 3146 c14 -14 21 -16 30 -7 8 8 8 11 0 11 -6 0 -20 3 -30 7 -17
7 -17 6 0 -11z"/>
<path d="M95 3131 c-6 -11 9 -23 19 -14 9 9 7 23 -3 23 -6 0 -12 -4 -16 -9z"/>
<path d="M223 3125 c2 -5 10 -10 17 -10 7 0 15 5 17 10 2 6 -6 11 -17 11 -11
0 -19 -5 -17 -11z"/>
<path d="M396 3119 c-10 -10 -15 -23 -10 -30 5 -8 3 -10 -6 -4 -9 5 -10 2 -5
-14 4 -12 2 -21 -4 -21 -6 0 -11 -4 -11 -10 0 -5 7 -7 15 -4 8 4 15 13 15 21
0 8 4 12 9 9 16 -10 31 19 23 46 -7 24 -8 24 -26 7z"/>
<path d="M205 3090 c3 -5 8 -10 11 -10 2 0 4 5 4 10 0 6 -5 10 -11 10 -5 0 -7
-4 -4 -10z"/>
<path d="M300 3080 c0 -5 7 -7 15 -4 8 4 15 8 15 10 0 2 -7 4 -15 4 -8 0 -15
-4 -15 -10z"/>
<path d="M400 3041 c0 -5 7 -11 14 -14 10 -4 13 -1 9 9 -6 15 -23 19 -23 5z"/>
<path d="M865 2964 c8 -6 12 -14 8 -17 -3 -4 -2 -7 4 -7 9 0 23 22 23 35 0 1
-11 2 -25 1 -21 -1 -23 -3 -10 -12z"/>
<path d="M1294 2971 c-3 -3 -11 -6 -17 -6 -7 0 -12 -14 -13 -31 0 -16 -3 -35
-7 -41 -4 -6 0 -13 8 -17 8 -3 15 -12 15 -20 0 -15 34 -27 85 -31 17 -1 30 -3
30 -4 0 -2 10 -4 23 -5 25 -3 28 6 8 24 -8 6 -22 33 -31 60 -9 27 -22 54 -30
60 -16 13 -61 20 -71 11z"/>
<path d="M3890 2934 c-58 -7 -170 -19 -250 -28 -819 -90 -1000 -107 -1575
-141 -326 -19 -358 -23 -351 -41 4 -11 -1 -11 -26 2 -18 9 -55 18 -83 20 -121
9 -215 24 -215 34 0 4 -10 10 -23 13 -12 2 -31 8 -41 12 -14 6 -17 5 -12 -3 4
-7 2 -12 -3 -12 -6 0 -11 -7 -11 -16 0 -10 -6 -14 -15 -11 -8 4 -17 1 -21 -5
-4 -7 -11 -2 -18 11 -12 21 -12 21 -34 3 -16 -14 -22 -31 -22 -59 0 -58 -18
-76 -68 -71 -49 4 -57 -9 -9 -15 17 -3 8 -4 -21 -3 -29 0 -52 -3 -52 -9 0 -5
-4 -3 -10 5 -8 12 -10 12 -16 -3 -3 -9 -11 -14 -18 -10 -6 3 -5 0 2 -8 7 -8
16 -14 20 -15 28 -2 128 -19 182 -30 50 -10 66 -10 72 -1 6 9 8 9 8 0 0 -7 9
-13 19 -13 23 0 76 -19 69 -25 -2 -2 -46 2 -98 10 -52 8 -113 17 -135 20 -80
12 -225 7 -390 -12 -33 -4 -62 -7 -65 -8 -98 -26 -132 -38 -240 -88 -50 -24
-86 -52 -157 -125 -51 -52 -93 -88 -93 -80 0 8 3 18 7 22 5 4 9 20 10 34 5 93
22 201 35 227 9 17 30 48 48 70 17 22 27 41 22 43 -20 6 -235 -17 -241 -26 -3
-5 -21 -13 -39 -17 -32 -7 -32 -7 -32 -67 0 -46 4 -64 17 -73 16 -12 16 -14 0
-38 -12 -19 -17 -48 -17 -107 l0 -80 25 6 c19 5 25 2 25 -10 0 -9 -6 -13 -13
-10 -8 3 -19 -2 -26 -9 -9 -12 -8 -16 5 -21 9 -3 20 -4 25 0 5 3 12 -2 15 -10
3 -9 14 -16 23 -16 15 0 51 -50 51 -71 0 -17 -20 -9 -21 9 0 12 -3 11 -10 -7
l-9 -23 -29 28 c-62 62 -62 62 -60 -5 1 -44 6 -61 15 -61 8 0 14 5 14 11 0 6
7 8 16 5 17 -6 17 0 -1 49 -4 11 2 7 13 -9 12 -17 19 -33 16 -38 -3 -4 -1 -8
5 -8 5 0 13 -9 16 -20 4 -11 10 -18 15 -15 11 7 28 -16 32 -45 2 -14 9 -33 14
-44 10 -16 12 -13 21 22 10 37 8 43 -12 62 -13 12 -28 19 -34 16 -5 -4 -15 3
-21 15 -16 30 16 54 64 49 14 -1 17 3 13 15 -4 10 -3 14 4 10 6 -4 8 -13 5
-21 -3 -7 -1 -16 4 -19 6 -4 10 -1 10 5 0 7 8 22 18 35 l19 24 1 -30 c0 -16
-5 -29 -11 -29 -7 0 -5 -5 5 -10 10 -6 14 -18 11 -31 -4 -12 0 -25 8 -30 10
-6 10 -9 2 -9 -17 0 -16 -30 1 -44 7 -6 23 -38 36 -70 16 -40 33 -64 52 -75
15 -9 30 -23 33 -31 4 -12 34 -18 130 -28 69 -6 135 -16 146 -22 19 -11 19
-12 -9 -53 -66 -96 -75 -124 -77 -237 0 -58 -4 -113 -9 -123 -5 -10 -3 -23 4
-32 7 -8 8 -15 3 -15 -5 0 -10 -13 -10 -30 0 -16 4 -27 9 -24 15 10 8 -34 -8
-51 -23 -23 -8 -32 17 -10 17 17 22 17 29 5 11 -17 10 -21 16 65 2 34 0 45 -6
35 -6 -9 -10 -10 -10 -3 0 6 5 15 11 18 6 4 8 14 5 24 -5 14 -4 13 8 -2 18
-23 22 -22 36 12 15 37 34 45 77 30 19 -6 35 -9 37 -7 1 1 10 16 20 31 13 21
23 27 38 24 11 -3 18 -3 15 0 -11 11 47 53 72 53 55 0 101 -13 101 -27 0 -13
-12 -14 -78 -8 -42 4 -74 3 -69 -1 19 -20 91 -37 182 -44 59 -4 101 -12 103
-19 2 -6 23 -11 47 -11 l44 0 -32 -33 c-35 -37 -117 -93 -130 -89 -5 1 -5 -3
-1 -9 5 -9 2 -10 -11 -5 -15 5 -16 4 -5 -9 8 -10 9 -15 1 -15 -6 0 -11 -12
-10 -27 l1 -28 7 25 c7 24 7 24 19 5 6 -11 12 -15 12 -10 0 7 3 7 8 0 4 -5 22
-20 39 -33 26 -18 33 -19 33 -7 0 12 4 11 20 -5 15 -15 25 -18 38 -12 9 5 23
7 30 5 7 -3 12 5 12 21 0 14 5 26 11 26 5 0 8 4 5 8 -3 5 4 18 14 30 23 24 25
53 8 85 -10 19 -9 20 4 10 8 -7 18 -10 21 -6 4 3 7 2 7 -4 0 -6 9 -13 20 -16
14 -4 20 0 21 11 0 10 3 12 5 5 3 -6 -1 -24 -9 -39 -13 -25 -13 -31 0 -51 14
-21 14 -23 -1 -23 -11 0 -16 -7 -14 -17 2 -10 -3 -17 -9 -15 -7 1 -13 -7 -13
-18 0 -11 -5 -20 -11 -20 -6 0 -9 -6 -6 -13 4 -10 -7 -11 -48 -7 -61 7 -65 -2
-19 -52 16 -18 20 -25 8 -15 -23 19 -39 23 -29 7 11 -18 14 -50 4 -50 -5 0 -9
9 -9 20 0 11 -7 23 -15 26 -8 4 -15 10 -15 16 0 5 5 6 10 3 6 -3 10 -1 10 5 0
11 -49 34 -57 26 -3 -2 5 -7 16 -11 11 -3 18 -12 15 -20 -3 -7 -1 -16 5 -20 6
-3 11 -18 10 -33 l-1 -27 -8 25 c-4 14 -8 21 -9 16 -1 -5 -9 -2 -18 5 -16 13
-17 12 -5 -2 19 -25 11 -90 -16 -119 -15 -16 -21 -18 -16 -7 3 9 2 17 -4 17
-13 0 -21 -35 -11 -51 9 -15 -7 -49 -23 -49 -6 0 -4 8 5 18 10 10 15 21 12 24
-3 3 -8 16 -10 28 -5 27 -25 52 -25 31 0 -7 -5 -9 -10 -6 -8 5 -7 12 1 22 10
12 10 16 -2 24 -21 13 -33 11 -21 -4 12 -14 11 -42 -2 -54 -5 -4 -6 5 -2 20 4
18 3 26 -3 23 -5 -4 -13 3 -16 15 -6 17 -9 19 -16 8 -7 -11 -9 -9 -9 6 0 16
-2 17 -9 5 -6 -8 -7 -18 -4 -24 4 -5 -1 -7 -10 -3 -10 3 -17 2 -17 -4 0 -6 -4
-8 -9 -5 -15 10 -43 -6 -37 -20 6 -16 -10 -28 -19 -14 -12 19 -33 11 -28 -10
3 -11 9 -20 14 -20 5 0 6 8 2 18 -3 9 -3 14 1 11 12 -11 16 -54 7 -84 -7 -23
-10 -25 -11 -10 -1 11 -2 26 -1 33 3 20 -15 14 -28 -10 -6 -13 -10 -16 -7 -6
6 22 -4 30 -21 16 -11 -8 -12 -7 -7 6 3 9 10 16 14 16 13 0 20 44 9 55 -7 7
-8 5 -4 -6 8 -22 -14 -36 -27 -18 -7 10 -7 7 -3 -9 8 -28 -3 -64 -17 -56 -7 4
-8 2 -4 -5 4 -6 10 -9 14 -7 9 5 9 -50 0 -59 -7 -7 -34 35 -30 48 1 4 -4 10
-11 13 -9 3 -12 14 -9 30 2 14 1 24 -4 23 -5 -1 -17 1 -28 6 -12 5 -21 3 -28
-6 -7 -10 -8 -1 -4 27 5 33 2 43 -10 48 -22 9 -32 -3 -14 -14 13 -8 13 -11 -1
-22 -9 -7 -19 -20 -22 -28 -3 -8 -5 2 -3 22 1 20 8 43 15 52 10 12 9 17 -8 25
-24 13 -34 14 -27 2 4 -5 2 -20 -3 -33 -10 -23 -10 -23 -10 5 -1 18 -6 27 -17
27 -14 0 -14 1 0 16 21 21 20 27 -3 19 -13 -4 -20 0 -24 16 -5 18 -11 20 -33
15 -24 -6 -26 -5 -14 9 7 8 19 14 28 13 8 -2 17 3 19 10 6 14 -23 16 -32 2 -4
-6 -11 -8 -16 -5 -5 4 -9 2 -9 -3 0 -6 -7 -13 -16 -16 -8 -3 -12 -2 -9 4 9 14
-29 12 -43 -2 -17 -17 -27 -2 -12 17 7 9 11 17 8 20 -7 8 -33 -29 -33 -48 0
-10 6 -22 13 -26 11 -7 10 -9 -2 -14 -23 -9 -20 -26 8 -37 13 -5 27 -14 32
-21 4 -8 3 -10 -4 -5 -22 13 -12 -12 16 -42 15 -16 26 -35 24 -41 -2 -6 3 -9
12 -5 12 5 15 2 10 -10 -7 -17 24 -35 35 -20 3 5 14 15 24 23 15 12 17 12 11
-3 -3 -9 -10 -16 -15 -16 -5 0 -9 -5 -9 -10 0 -7 8 -7 23 1 22 12 22 12 4 -9
-18 -20 -18 -21 2 -32 12 -6 21 -16 21 -21 0 -6 27 -38 60 -70 33 -32 57 -59
54 -59 -4 0 0 -8 9 -18 15 -17 14 -18 -16 -16 -18 1 -39 4 -47 6 -8 3 -12 3
-7 1 15 -9 6 -22 -11 -17 -14 5 -15 4 -2 -5 58 -44 204 -90 287 -92 27 0 57
-4 68 -9 19 -7 18 -8 -7 -19 -48 -19 -123 -23 -196 -12 -230 36 -419 151 -504
307 -29 53 -65 184 -70 251 -4 54 -19 40 -23 -23 -2 -27 -4 -51 -6 -54 -1 -3
-1 -9 0 -13 1 -5 -4 -7 -11 -5 -8 3 -14 27 -16 67 -3 56 0 64 21 81 27 21 27
23 0 150 -9 41 -16 81 -16 88 0 6 -4 12 -9 12 -5 0 -7 9 -3 19 3 11 0 25 -8
33 -10 9 -12 21 -6 40 5 19 4 28 -4 28 -9 0 -9 2 0 8 6 4 11 18 11 32 -1 14 2
41 5 60 5 30 2 37 -16 45 -26 12 -35 72 -16 107 15 26 13 142 -2 200 -7 26
-14 36 -24 32 -13 -5 -13 -9 0 -26 15 -23 10 -78 -9 -90 -8 -6 -8 -10 0 -15
11 -8 34 -47 34 -57 0 -3 -5 -6 -11 -6 -15 0 -79 70 -79 86 0 7 -5 14 -12 16
-6 2 -17 20 -24 39 -10 28 -13 -40 -13 -393 -1 -425 -1 -428 19 -428 12 0 32
11 46 25 33 33 50 32 19 -1 -13 -14 -38 -50 -55 -80 -26 -46 -30 -64 -30 -124
0 -46 4 -69 10 -65 6 4 8 10 5 15 -3 5 2 22 12 37 10 15 17 28 15 30 -7 8 12
53 22 53 7 0 6 3 -2 9 -10 6 -10 10 3 21 8 7 15 18 15 24 0 7 9 22 20 34 12
12 16 22 10 22 -6 0 -2 13 9 29 11 15 18 31 14 35 -11 11 31 6 47 -5 13 -9 13
-10 -1 -6 -18 6 -51 -27 -41 -39 4 -4 2 -4 -4 -1 -7 4 -11 -4 -11 -21 0 -15
-3 -54 -7 -87 -4 -33 -7 -68 -7 -77 0 -10 -7 -18 -15 -18 -8 0 -14 -4 -14 -10
0 -5 5 -10 11 -10 8 0 8 -4 0 -14 -9 -11 -9 -15 1 -19 11 -5 11 -7 0 -15 -7
-5 -10 -16 -7 -24 4 -9 2 -19 -4 -22 -5 -4 -8 -24 -6 -46 4 -33 1 -40 -13 -40
-15 0 -15 -2 -2 -10 12 -7 12 -10 1 -10 -7 0 -11 -6 -8 -15 4 -8 1 -17 -5 -21
-7 -4 -6 -9 3 -14 10 -7 10 -12 1 -22 -6 -8 -9 -31 -7 -51 4 -27 0 -39 -13
-46 -16 -10 -15 -10 3 -11 19 -1 18 -2 -4 -21 -14 -11 -21 -23 -15 -27 16 -12
14 -32 -4 -32 -9 0 -13 -4 -7 -8 12 -9 18 -32 7 -32 -4 0 -8 -59 -10 -130 l-4
-130 61 0 c34 0 61 4 61 9 0 5 11 11 25 13 14 3 25 2 25 -1 0 -3 15 -7 33 -8
l32 -2 -30 13 -30 13 32 1 c22 0 34 -5 38 -17 7 -23 58 -26 76 -4 10 11 10 14
1 9 -7 -4 -12 -2 -12 4 0 7 -7 9 -16 6 -10 -4 -14 -1 -11 6 2 7 15 12 28 10
13 -1 19 1 13 5 -6 5 -10 18 -9 31 1 13 -2 25 -6 28 -5 2 -5 12 -2 21 5 13 2
15 -13 10 -17 -6 -18 -6 -2 6 16 12 16 14 -3 27 -18 14 -28 37 -11 26 5 -3 9
1 9 9 0 10 -5 11 -19 4 -14 -7 -18 -6 -18 5 0 8 -6 17 -12 20 -7 3 -2 3 12 0
22 -6 23 -5 8 10 -19 19 -38 21 -38 4 0 -6 -3 -8 -7 -5 -3 4 2 16 12 27 11 12
13 20 6 20 -7 0 -10 4 -7 9 3 5 -4 11 -15 14 -18 5 -20 11 -14 36 4 17 2 31
-3 31 -16 0 -12 63 6 77 16 12 16 13 -1 7 -15 -5 -17 1 -17 45 0 66 23 60 40
-10 7 -27 15 -49 18 -49 11 0 44 -75 40 -91 -2 -7 -7 -18 -13 -22 -6 -5 -4 -7
5 -6 8 1 24 1 35 0 19 -2 19 -3 -3 -13 -12 -6 -22 -15 -22 -20 0 -5 5 -6 10
-3 16 10 52 -5 47 -20 -3 -7 0 -18 6 -24 8 -8 8 -11 0 -11 -7 0 -11 -9 -10
-19 0 -11 4 -18 8 -15 4 2 12 -3 19 -11 10 -13 9 -15 -9 -15 -13 0 -19 -4 -16
-10 4 -6 14 -9 23 -8 11 2 16 -4 17 -22 0 -14 6 -29 14 -34 11 -7 11 -10 0
-17 -10 -6 -10 -9 -2 -9 7 0 10 -7 6 -16 -3 -9 0 -20 8 -25 11 -7 9 -10 -8
-15 -25 -7 -30 -19 -10 -23 38 -8 197 -9 197 -2 0 5 -6 12 -12 15 -7 3 -4 4 6
3 12 -1 25 7 32 22 13 25 8 55 -7 45 -5 -3 -9 5 -9 18 0 18 -2 20 -10 8 -8
-13 -10 -12 -10 3 0 9 -3 17 -8 17 -4 0 -13 9 -20 21 -8 12 -9 18 -3 14 6 -3
11 0 11 7 0 16 -35 48 -52 48 -6 0 -8 3 -5 7 4 3 -2 12 -13 20 -11 8 -20 21
-20 30 0 14 -2 14 -15 -3 -13 -18 -14 -17 -12 11 2 26 -1 30 -23 30 -18 0 -25
5 -23 18 0 12 -4 16 -13 13 -8 -3 -14 1 -14 8 0 7 -6 19 -14 25 -8 7 -29 40
-46 74 -57 110 -56 116 7 52 64 -67 109 -99 123 -90 6 3 10 -1 10 -11 0 -12 6
-15 25 -12 13 3 23 2 20 -2 -8 -14 44 -57 91 -75 56 -21 68 -33 51 -55 -8 -10
-5 -9 9 2 11 10 25 18 30 18 5 0 2 -5 -6 -10 -13 -8 -11 -13 12 -34 17 -16 28
-21 30 -14 3 8 13 4 28 -10 13 -12 28 -22 32 -22 5 0 6 -4 3 -10 -3 -5 -1 -10
5 -10 7 0 9 -8 5 -22 -6 -17 -4 -20 10 -14 13 5 16 2 11 -11 -6 -15 -5 -15 13
1 19 17 19 17 14 -6 -6 -21 -5 -22 10 -9 15 12 17 12 12 -1 -4 -9 1 -23 10
-32 15 -14 15 -17 1 -22 -12 -4 -12 -9 -3 -18 9 -11 14 -10 25 1 19 18 29 8
12 -12 -7 -9 -9 -19 -5 -23 4 -4 10 -1 12 6 3 6 14 12 25 12 14 0 18 -5 14
-15 -4 -12 -1 -12 21 2 24 16 26 16 38 0 17 -24 28 -21 15 4 -9 16 -17 19 -41
14 -32 -7 -38 5 -14 28 8 8 11 18 7 22 -4 4 3 3 15 -4 31 -16 31 -16 31 31 1
49 15 63 80 81 23 6 42 15 42 19 0 4 4 8 10 8 6 0 6 -9 0 -24 -6 -17 -5 -26 3
-30 7 -2 -6 -5 -28 -6 -22 -1 -31 -4 -20 -7 11 -3 25 -10 30 -15 7 -7 2 -8
-15 -3 -22 7 -23 6 -11 -9 12 -14 10 -16 -20 -17 -32 -1 -32 -2 -9 -9 23 -7
22 -8 -10 -10 -34 -1 -34 -2 -10 -12 15 -6 20 -12 12 -15 -6 -3 -10 -8 -7 -13
3 -5 -2 -16 -11 -25 -9 -9 -13 -19 -9 -23 4 -4 15 4 24 18 15 24 115 156 176
234 61 78 87 106 101 106 24 0 15 -20 -8 -21 -22 0 -22 -1 -3 -9 18 -8 18 -9
-5 -10 -23 -1 -23 -2 -5 -10 17 -7 17 -9 3 -9 -11 -1 -15 -6 -12 -16 4 -8 1
-15 -6 -15 -6 0 -8 -4 -5 -10 3 -5 2 -10 -3 -10 -5 0 -9 -6 -9 -13 0 -6 -12
-42 -26 -79 -15 -36 -27 -71 -27 -76 0 -5 -7 -15 -15 -22 -8 -7 -15 -23 -15
-36 0 -21 5 -24 34 -24 40 0 46 7 52 57 10 82 97 233 135 233 13 0 17 -5 12
-17 -6 -16 -5 -16 10 -4 15 12 17 11 17 -7 0 -11 7 -22 15 -26 8 -3 15 -1 15
4 0 6 8 5 19 -2 11 -7 17 -16 15 -20 -3 -5 -9 -6 -14 -3 -4 3 -11 -2 -14 -11
-5 -14 -9 -13 -24 6 -18 22 -18 22 -18 1 0 -12 6 -21 14 -21 7 0 11 -4 8 -9
-4 -5 8 -4 24 2 25 9 32 19 37 50 4 26 9 34 14 25 6 -9 9 -7 9 10 0 13 -6 22
-15 22 -8 0 -15 3 -15 6 0 8 24 30 40 37 10 4 8 6 -7 6 -12 1 -24 -5 -26 -11
-3 -8 -6 -6 -6 4 -1 9 7 21 17 27 16 9 16 11 -3 25 -20 15 -20 15 3 9 12 -3
25 -9 28 -14 7 -12 24 -11 24 2 0 5 -4 8 -9 5 -13 -8 -21 18 -10 35 6 9 9 10
9 2 0 -7 7 -10 15 -7 8 4 15 1 15 -5 0 -6 3 -10 8 -8 8 2 12 -6 12 -29 0 -10
-6 -14 -15 -11 -11 5 -12 1 -5 -18 6 -17 6 -27 -3 -32 -7 -4 -13 -28 -13 -53
-3 -75 -10 -135 -18 -148 -4 -7 -2 -12 4 -12 6 0 10 -12 9 -27 -4 -56 0 -73
20 -73 17 0 20 9 24 68 8 106 11 116 35 128 34 17 40 27 9 15 -21 -8 -27 -8
-27 4 0 7 6 20 13 27 8 7 12 19 9 27 -3 10 0 11 18 1 12 -6 24 -9 27 -7 2 3
-5 10 -16 17 -24 12 -28 27 -6 27 8 0 12 -4 9 -9 -3 -4 -1 -8 5 -8 13 0 23 33
15 53 -4 12 0 14 18 10 l23 -5 -23 19 c-22 18 -22 20 -7 51 9 18 20 32 25 32
4 0 10 9 13 20 3 11 1 20 -4 20 -14 0 1 28 18 35 18 6 36 -7 39 -29 1 -9 -5
-12 -20 -9 -16 4 -18 2 -7 -5 8 -6 10 -15 6 -22 -5 -8 -4 -11 2 -7 6 4 13 -2
16 -13 3 -11 2 -20 -2 -20 -4 0 -8 -7 -8 -15 0 -8 3 -12 7 -10 4 2 8 -24 9
-58 2 -97 5 -121 15 -129 5 -3 10 -14 11 -25 1 -10 11 -44 23 -76 12 -32 22
-66 22 -77 0 -19 17 -36 26 -27 3 3 -2 26 -10 52 -9 25 -14 51 -11 56 4 5 2 9
-3 9 -12 0 -21 36 -28 110 -3 30 -9 68 -14 83 -6 17 -5 38 1 54 5 14 7 28 4
31 -2 3 1 12 8 20 10 13 9 15 -3 8 -8 -4 -6 0 5 9 14 12 16 19 8 22 -15 6 -17
43 -3 43 17 0 11 18 -7 23 -17 4 -17 5 0 6 10 1 17 9 17 22 0 11 5 17 10 14 6
-4 5 5 -2 20 -10 22 -9 28 3 36 8 5 10 9 5 9 -6 0 -5 5 1 11 6 6 9 17 7 23 -3
7 7 18 21 24 29 14 31 28 8 56 -17 20 -17 20 1 6 25 -19 46 -21 46 -4 0 8 7
14 16 14 8 0 13 4 10 9 -4 5 8 12 25 16 17 4 33 15 36 25 3 12 12 16 31 13 24
-4 25 -3 10 9 -15 13 -15 15 2 25 9 7 65 15 124 18 98 6 108 5 136 -15 16 -12
30 -26 30 -33 0 -6 -6 -2 -14 8 -10 14 -28 19 -69 20 -48 2 -57 -1 -68 -21 -6
-13 -16 -21 -21 -18 -5 3 -3 13 4 22 11 15 11 15 -3 4 -13 -10 -15 -21 -9 -46
4 -18 3 -40 -1 -49 -12 -21 -1 -94 56 -357 9 -41 18 -88 21 -105 2 -16 6 -43
9 -58 2 -16 7 -42 10 -59 5 -21 4 -28 -4 -24 -6 4 -11 2 -11 -3 0 -6 5 -11 10
-11 6 0 10 -6 9 -12 -1 -7 0 -20 4 -28 3 -8 8 -32 12 -52 3 -21 10 -38 15 -38
5 0 7 6 5 13 -2 6 -6 35 -9 62 -8 73 -44 277 -66 370 -27 115 -41 233 -34 274
7 40 35 76 76 97 33 17 62 18 31 1 -27 -15 -15 -44 13 -33 16 6 16 8 4 16 -12
8 -9 10 10 10 15 0 31 5 38 12 6 6 15 9 18 5 4 -3 -1 -13 -10 -22 -20 -21 -48
-73 -53 -100 -6 -29 -3 -698 2 -704 14 -13 18 21 17 151 0 79 5 151 10 162 6
11 6 16 0 13 -12 -8 -23 131 -17 233 4 91 21 163 36 154 6 -4 6 -11 -2 -20 -9
-11 -8 -14 5 -14 9 0 16 -7 16 -15 0 -8 5 -15 10 -15 6 0 10 7 10 15 0 7 8 19
18 25 14 8 11 9 -13 5 -30 -5 -30 -5 3 7 24 8 39 8 58 -1 27 -12 24 -34 -3
-24 -10 4 -14 2 -9 -5 3 -6 -3 -13 -16 -15 -17 -4 -15 -5 7 -4 17 0 40 -4 51
-11 21 -11 34 -7 34 9 0 5 -7 6 -15 3 -8 -4 -15 -1 -15 5 0 6 11 11 24 11 13
0 26 5 28 11 2 7 13 9 27 4 22 -7 22 -8 5 -26 -10 -11 -19 -26 -20 -34 -1 -8
-16 -37 -33 -65 -17 -28 -31 -54 -31 -59 0 -5 -7 -22 -14 -38 -41 -79 -75
-164 -61 -153 9 7 22 29 31 49 40 93 99 199 107 194 6 -3 7 -1 4 5 -10 15 3
43 17 35 6 -3 8 -3 4 2 -14 15 71 110 126 142 25 15 112 17 121 3 3 -5 11 -10
16 -10 6 0 7 5 3 12 -5 7 -3 8 6 3 10 -6 10 -10 -2 -19 -13 -10 -13 -13 -2
-24 8 -7 19 -10 24 -7 6 3 10 2 10 -3 0 -5 31 -30 70 -57 38 -27 98 -80 132
-119 35 -39 68 -76 73 -82 6 -6 22 -32 35 -58 14 -25 27 -46 30 -46 5 0 34 68
45 108 12 40 129 150 174 162 23 6 41 16 41 21 0 6 -25 75 -56 153 -61 156
-93 197 -169 216 -84 23 -114 41 -82 53 27 10 -4 17 -81 19 -45 1 -86 5 -92 8
-20 12 10 70 38 76 87 19 104 26 94 36 -5 5 -28 12 -51 15 -41 6 -58 23 -22
23 10 0 24 7 31 15 9 11 9 15 1 15 -7 0 -9 5 -6 10 3 6 -3 10 -14 10 -34 0
-26 36 10 49 17 6 33 20 36 31 5 20 5 20 34 -1 32 -22 49 -18 49 11 0 10 5 22
10 25 13 8 -6 35 -24 35 -6 0 -22 9 -35 19 l-25 19 85 6 c46 4 112 8 146 9
l63 2 0 43 c0 39 -2 42 -28 42 -15 0 -42 -4 -59 -9 -18 -5 -84 -13 -146 -16
l-113 -7 -13 28 c-11 26 -11 30 10 47 22 18 22 20 6 32 -21 15 -22 41 -3 52 8
4 16 19 19 33 4 25 4 25 6 -2 1 -35 24 -36 57 -3 31 31 30 31 38 0 3 -13 12
-23 19 -21 6 1 9 1 4 -1 -4 -3 -5 -9 -2 -14 4 -5 0 -6 -8 -3 -11 4 -13 -1 -10
-20 4 -18 1 -26 -8 -26 -11 -1 -11 -3 1 -9 14 -9 117 2 128 14 3 3 0 5 -6 5
-20 0 -13 18 10 26 l22 7 -22 17 c-12 10 -22 23 -22 29 0 6 -12 11 -27 12 -64
1 15 16 115 22 l103 5 -2 -26 c-3 -41 3 -99 8 -79 9 35 23 16 22 -30 -1 -27
-4 -39 -6 -29 -5 18 -6 18 -19 -5 -7 -13 -13 -18 -14 -10 0 11 -5 9 -19 -5
-20 -22 -23 -69 -4 -69 7 0 18 -6 25 -13 9 -9 9 -15 0 -24 -7 -7 -12 -19 -12
-27 0 -11 4 -10 15 5 14 18 16 18 26 2 15 -26 43 -23 36 2 -7 28 10 85 30 101
15 12 16 12 9 -6 -19 -46 -23 -71 -15 -90 8 -20 8 -20 14 2 6 19 22 29 67 39
10 2 22 -5 28 -17 17 -31 7 -42 -17 -20 -23 21 -38 16 -23 -8 5 -8 13 -10 21
-5 12 6 12 5 0 -9 -7 -9 -10 -17 -5 -17 5 0 -2 -9 -15 -19 l-24 -19 26 3 c18
2 27 -1 27 -11 0 -9 -4 -12 -10 -9 -5 3 -10 1 -10 -4 0 -6 5 -11 11 -11 6 0 8
-7 5 -16 -3 -8 -2 -12 4 -9 6 3 10 2 10 -4 0 -5 3 -16 6 -24 6 -16 -11 -18
-32 -4 -7 4 -15 0 -18 -9 -9 -23 -9 -23 34 -21 35 1 44 -4 79 -42 26 -28 42
-58 46 -82 4 -21 15 -65 25 -98 l18 -60 -77 -6 c-145 -11 -191 -17 -191 -23 0
-4 7 -54 15 -111 l15 -105 -24 -25 c-12 -14 -26 -34 -29 -44 -6 -16 -3 -17 31
-12 20 4 62 10 93 15 95 14 136 44 182 135 19 38 27 46 31 33 3 -10 9 -26 14
-35 8 -21 13 817 10 1605 l-3 537 -105 -11z m-2660 -184 c-6 -4 -11 -13 -10
-21 5 -35 -1 -79 -11 -79 -7 0 -9 14 -4 43 10 63 15 78 27 71 7 -4 6 -9 -2
-14z m-253 -251 c15 -6 89 -15 163 -20 153 -11 204 -23 310 -76 71 -36 75 -40
78 -74 4 -57 -20 -76 -122 -93 -48 -9 -94 -20 -104 -25 -9 -5 -36 -12 -59 -16
-37 -6 -43 -4 -43 10 0 10 -6 15 -12 12 -49 -18 -56 -17 -63 3 -10 31 -28 24
-23 -10 5 -35 -14 -46 -68 -35 -33 6 -34 7 -28 45 7 45 0 49 -32 19 -15 -14
-35 -21 -61 -21 -21 0 -148 1 -283 2 -135 2 -265 -1 -288 -5 -44 -7 -44 -7
-31 16 56 107 151 187 264 221 155 46 346 69 402 47z m-827 -129 c0 -5 -2 -10
-4 -10 -3 0 -8 5 -11 10 -3 6 -1 10 4 10 6 0 11 -4 11 -10z m47 -182 c-3 -8
-6 -5 -6 6 -1 11 2 17 5 13 3 -3 4 -12 1 -19z m-16 -10 c11 -21 11 -22 -5 -8
-16 13 -18 12 -16 -5 5 -43 0 -50 -16 -27 -15 22 -15 25 2 42 24 24 21 24 35
-2z m3761 -170 c-9 -9 -12 -7 -12 12 0 19 3 21 12 12 9 -9 9 -15 0 -24z m-349
0 c4 -10 8 -9 16 2 13 19 22 10 15 -15 -3 -11 -16 -25 -29 -31 -20 -10 -23 -9
-18 5 3 12 1 11 -11 -3 -9 -11 -16 -28 -16 -38 0 -14 4 -16 23 -9 19 7 46 8
80 2 4 0 7 -5 7 -10 0 -8 -291 -34 -320 -28 -28 5 -41 19 -39 40 2 36 -1 48
-10 43 -5 -3 -7 -25 -4 -49 4 -33 3 -40 -7 -30 -10 9 -16 9 -26 -2 -17 -16
-149 -30 -210 -21 -31 4 -44 2 -45 -7 0 -6 -7 2 -14 18 l-14 30 -1 -26 c0 -22
-5 -26 -34 -27 -21 -1 -41 6 -55 19 -19 18 -26 15 -23 -12 1 -6 1 -6 -90 -15
l-68 -6 9 24 c5 14 15 22 26 20 10 -2 14 1 10 7 -3 6 -13 11 -21 11 -8 0 -13
4 -9 10 3 5 12 7 19 4 8 -3 17 -1 21 5 3 6 13 11 21 11 8 0 12 -4 9 -10 -3 -5
4 -10 17 -11 13 0 40 -2 62 -5 33 -3 37 -1 31 14 -18 42 -17 52 1 52 11 0 50
3 87 6 l68 6 -7 -28 c-4 -16 -11 -30 -16 -32 -15 -6 -8 -20 12 -25 25 -7 53
31 48 65 -3 26 -2 26 285 42 l118 7 -16 -25 c-9 -14 -15 -35 -13 -48 l4 -23
12 25 c16 35 33 54 62 67 33 15 47 16 53 1z m-2489 -18 c22 -8 26 -16 26 -48
0 -21 7 -61 15 -88 32 -106 12 -147 -88 -183 l-58 -21 -26 20 c-19 15 -41 20
-84 20 -87 0 -87 31 0 94 37 26 61 55 92 111 36 67 69 105 91 105 3 0 18 -4
32 -10z m2556 -30 c0 -13 -5 -18 -15 -14 -16 7 -19 17 -8 27 12 13 23 7 23
-13z m-1770 -10 c0 -5 -11 -10 -25 -10 -14 0 -25 5 -25 10 0 6 11 10 25 10 14
0 25 -4 25 -10z m1880 -5 c0 -8 -2 -15 -4 -15 -2 0 -6 7 -10 15 -3 8 -1 15 4
15 6 0 10 -7 10 -15z m60 11 c0 -2 -7 -9 -15 -16 -12 -10 -15 -10 -15 4 0 9 7
16 15 16 8 0 15 -2 15 -4z m-1191 -53 c-7 -18 -5 -29 8 -41 12 -12 18 -13 21
-4 2 6 10 12 18 12 12 0 12 -4 4 -20 -12 -23 -39 -26 -59 -7 -11 10 -13 10 -7
0 5 -10 -4 -13 -33 -13 -31 0 -41 4 -41 16 0 10 6 14 15 10 9 -3 15 0 15 8 0
8 -6 17 -12 19 -7 3 -3 6 10 6 12 1 22 -3 22 -9 0 -5 4 -10 10 -10 5 0 7 13 3
31 -4 21 -1 34 8 39 19 12 29 -8 18 -37z m-119 27 c0 -5 -4 -10 -9 -10 -4 0
-7 -12 -5 -27 l4 -28 -10 29 c-5 16 -7 33 -4 38 7 11 24 10 24 -2z m-577 -37
c9 -9 17 -22 17 -30 0 -7 4 -13 8 -13 5 0 9 7 9 15 0 8 -4 15 -9 15 -5 0 -7 4
-4 9 4 5 3 11 -1 14 -5 2 -2 2 6 0 7 -2 20 2 27 8 17 14 18 -2 2 -20 -11 -11
-10 -14 0 -18 22 -8 33 -40 18 -52 -11 -9 -18 -8 -29 4 -10 9 -18 11 -22 5 -3
-5 -1 -10 6 -10 9 0 9 -3 0 -14 -10 -12 -6 -14 24 -12 36 2 57 19 49 41 -3 6
2 12 11 12 10 0 15 -10 15 -29 0 -19 -5 -28 -16 -28 -11 0 -14 -5 -9 -17 11
-28 14 -64 5 -58 -5 3 -7 12 -4 19 3 7 -3 19 -12 27 -16 13 -17 12 -12 -9 4
-12 2 -20 -3 -16 -5 3 -9 12 -9 20 0 8 -4 14 -9 14 -5 0 -16 3 -24 6 -19 7
-20 -45 -1 -64 15 -14 17 -11 15 28 0 21 1 20 10 -7 5 -18 14 -34 19 -34 6 -1
19 -3 30 -4 11 -1 23 -3 27 -4 4 0 2 -6 -4 -12 -8 -8 -9 -19 -1 -38 6 -14 12
-63 14 -109 1 -45 6 -87 9 -92 3 -6 1 -10 -4 -10 -12 0 -13 6 -16 57 -2 65
-83 132 -160 133 -46 1 -140 36 -143 54 -7 33 56 189 73 182 5 -2 21 -6 35
-10 19 -6 21 -5 10 3 -13 9 -13 11 3 11 9 0 17 4 17 9 0 5 8 11 18 14 15 3 15
5 -3 11 -11 4 -29 12 -40 17 -16 7 -13 8 10 3 17 -3 38 -13 48 -21z m337 17
c0 -7 6 -7 18 -1 16 8 23 4 42 -22 22 -31 22 -31 2 -13 -33 28 -40 10 -8 -19
15 -14 22 -25 16 -25 -6 0 -8 -4 -5 -10 4 -6 -17 -9 -57 -9 -35 1 -51 4 -35 6
15 2 27 9 27 14 0 5 7 9 15 9 8 0 15 5 15 10 0 6 -6 10 -12 9 -7 -1 -18 -1
-24 0 -13 1 -17 61 -3 61 5 0 9 -5 9 -10z m-95 -10 c3 -5 1 -10 -4 -10 -6 0
-11 5 -11 10 0 6 2 10 4 10 3 0 8 -4 11 -10z m288 -44 c9 1 17 -2 17 -7 0 -5
-8 -10 -17 -10 -10 -1 -4 -5 12 -9 26 -6 23 -8 -20 -8 -27 0 -42 2 -32 5 9 2
17 9 17 15 0 6 -9 8 -20 5 -11 -3 -20 -1 -20 4 0 5 7 9 15 9 8 0 15 8 16 18 1
13 2 12 7 -4 4 -13 14 -20 25 -18z m54 -28 c-3 -8 -6 -5 -6 6 -1 11 2 17 5 13
3 -3 4 -12 1 -19z m-2087 -28 c25 -7 92 -18 150 -26 104 -13 105 -13 24 -9
-105 5 -218 31 -246 56 l-23 20 25 -15 c14 -8 45 -20 70 -26z m1750 36 c0 -2
-9 -6 -20 -9 -11 -3 -18 -1 -14 4 5 9 34 13 34 5z m870 -13 c-39 -51 -43 -53
-57 -41 -11 9 -17 9 -25 -3 -8 -11 -11 -11 -15 -1 -4 10 -9 8 -20 -7 -21 -31
-29 -26 -31 18 l-3 40 48 3 c26 2 63 4 82 6 31 3 33 1 21 -15z m34 2 c-4 -8
-8 -15 -10 -15 -2 0 -4 7 -4 15 0 8 4 15 10 15 5 0 7 -7 4 -15z m-228 -40 c-1
-24 -4 -46 -7 -48 -2 -3 -66 -7 -141 -11 l-138 -7 0 45 c0 30 4 46 13 47 6 0
57 3 112 5 55 3 101 7 104 10 2 2 17 4 32 4 27 0 28 -2 25 -45z m-666 28 c0
-5 -15 -9 -33 -10 -26 -1 -28 0 -12 7 26 11 45 12 45 3z m338 -60 l3 -42 -93
-3 c-100 -3 -111 -2 -82 9 10 3 22 11 26 17 5 7 8 6 8 -3 0 -11 3 -11 15 -1 8
7 13 16 10 20 -2 4 7 12 20 18 14 7 25 16 25 22 0 7 14 10 33 7 30 -3 32 -6
35 -44z m-1703 27 c-3 -5 -14 -10 -23 -10 -15 0 -15 2 -2 10 20 13 33 13 25 0z
m1261 -27 c4 -16 11 -33 16 -40 10 -12 37 -303 28 -303 -20 1 -28 31 -39 149
-7 74 -16 142 -22 152 -12 23 -12 69 1 69 5 0 13 -12 16 -27z m78 15 c-3 -5
-10 -5 -16 -2 -7 5 -9 1 -5 -9 7 -19 -8 -23 -19 -6 -3 6 -1 14 5 18 16 10 41
10 35 -1z m1436 -39 c0 -11 -4 -17 -10 -14 -5 3 -10 15 -10 26 0 11 5 17 10
14 6 -3 10 -15 10 -26z m30 22 c0 -6 -4 -13 -10 -16 -5 -3 -10 1 -10 9 0 9 5
16 10 16 6 0 10 -4 10 -9z m-390 -21 c0 -5 -5 -10 -11 -10 -5 0 -7 5 -4 10 3
6 8 10 11 10 2 0 4 -4 4 -10z m-133 -15 c0 -8 -4 -12 -9 -9 -4 3 -8 9 -8 15 0
5 4 9 8 9 5 0 9 -7 9 -15z m103 -1 c0 -8 -4 -12 -10 -9 -5 3 -10 10 -10 16 0
5 5 9 10 9 6 0 10 -7 10 -16z m-310 -4 c0 -5 -2 -10 -4 -10 -3 0 -8 5 -11 10
-3 6 -1 10 4 10 6 0 11 -4 11 -10z m-172 -6 c22 -6 21 -8 -17 -31 -23 -13 -45
-22 -50 -19 -5 3 -8 -2 -7 -12 1 -12 -5 -16 -23 -14 -32 3 -35 6 -22 31 8 15
8 22 -1 28 -22 14 79 28 120 17z m-134 -20 c5 -14 4 -15 -9 -4 -17 14 -19 20
-6 20 5 0 12 -7 15 -16z m491 6 c3 -5 1 -10 -4 -10 -6 0 -11 5 -11 10 0 6 2
10 4 10 3 0 8 -4 11 -10z m-593 -26 c-4 -24 11 -33 23 -14 13 20 23 9 31 -32
13 -71 1 -98 -36 -78 -32 17 -35 6 -4 -14 24 -17 27 -17 45 0 23 20 33 14 24
-15 -4 -13 -11 -18 -18 -14 -7 4 -6 -1 2 -10 8 -11 9 -17 2 -17 -7 0 -8 -8 0
-26 5 -15 7 -29 5 -32 -3 -2 -8 7 -12 22 -7 29 -22 34 -30 11 -4 -8 -10 -15
-15 -15 -5 0 -9 7 -9 15 0 14 -14 20 -35 15 -5 -1 -17 -2 -25 -2 -27 1 -72
-21 -60 -28 9 -5 8 -15 -4 -37 -8 -17 -12 -34 -8 -38 4 -5 -1 -5 -11 -2 -23 9
-67 -2 -67 -15 0 -6 8 -7 17 -3 15 5 14 3 -2 -13 -15 -14 -21 -16 -23 -5 -4
16 -19 17 -25 1 -3 -10 -8 -9 -22 2 -17 14 -18 13 -13 -2 4 -9 4 -19 1 -22 -9
-9 -33 65 -26 77 3 6 1 7 -5 3 -6 -3 -13 -2 -16 3 -4 5 2 12 11 14 15 4 15 5
-2 6 -18 1 -21 8 -22 64 -2 46 0 57 8 42 7 -15 8 -12 3 15 -3 19 -7 44 -9 55
-2 11 -6 28 -10 37 -5 13 0 19 19 24 14 3 33 4 41 0 8 -3 15 0 16 7 0 7 5 2
11 -10 7 -14 20 -23 35 -23 12 0 23 -6 24 -12 0 -7 4 -4 8 6 11 28 2 64 -18
69 -9 3 -4 5 12 6 15 1 27 -4 27 -11 0 -9 2 -10 8 -2 9 15 36 21 103 21 53 0
55 -1 51 -23z m-978 -2 c3 -5 -2 -18 -12 -28 -9 -11 -19 -26 -21 -34 -10 -34
-3 -128 12 -156 11 -22 14 -40 8 -60 -8 -26 -9 -27 -16 -9 -4 11 -23 54 -42
95 -49 104 -52 138 -18 173 27 26 78 37 89 19z m-625 -18 l32 -16 -20 -22
c-12 -12 -21 -31 -21 -42 1 -18 1 -18 14 -1 8 10 17 14 20 9 3 -5 -9 -19 -25
-31 -28 -21 -30 -21 -26 -5 3 11 8 33 11 49 5 24 4 27 -4 12 -6 -9 -14 -15
-18 -13 -4 3 -8 -3 -9 -12 -4 -54 -9 -79 -16 -75 -4 2 -4 15 -1 28 4 17 0 26
-14 34 -11 6 -23 7 -27 3 -5 -4 -5 2 -1 12 6 16 4 17 -10 5 -9 -7 -20 -24 -25
-36 -5 -13 -14 -22 -21 -21 -8 2 -12 -7 -11 -27 2 -23 1 -25 -5 -11 -8 17 -9
17 -25 2 -9 -10 -17 -13 -17 -7 0 5 4 12 9 15 5 3 9 16 9 30 0 13 11 41 26 62
20 30 38 43 79 56 67 21 59 20 96 2z m80 -33 c9 -6 10 -11 2 -15 -6 -4 -11 -1
-11 6 -1 8 -6 6 -15 -6 -16 -21 -19 -18 -9 8 7 18 13 19 33 7z m2658 -23 c-3
-8 -6 -5 -6 6 -1 11 2 17 5 13 3 -3 4 -12 1 -19z m-2654 -15 c4 -3 -2 -12 -13
-20 -11 -8 -17 -20 -14 -28 4 -11 -1 -15 -16 -15 -21 0 -22 2 -8 18 8 9 18 25
21 35 7 18 19 22 30 10z m-178 -40 c-4 -10 -7 -27 -7 -37 1 -13 -2 -16 -9 -9
-12 12 -1 63 13 63 6 0 7 -8 3 -17z m2793 -6 c17 -12 15 -27 -5 -27 -9 0 -13
3 -10 7 4 3 -1 12 -11 19 -13 10 -14 12 -2 11 8 -2 21 -6 28 -10z m-2698 -17
c0 -5 -5 -10 -11 -10 -5 0 -7 5 -4 10 3 6 8 10 11 10 2 0 4 -4 4 -10z m2373
-7 c-7 -2 -19 -2 -25 0 -7 3 -2 5 12 5 14 0 19 -2 13 -5z m94 1 c-3 -3 -12 -4
-19 -1 -8 3 -5 6 6 6 11 1 17 -2 13 -5z m-2707 -13 c0 -6 -4 -13 -10 -16 -5
-3 -10 1 -10 9 0 9 5 16 10 16 6 0 10 -4 10 -9z m285 -1 c3 -5 1 -10 -4 -10
-6 0 -11 5 -11 10 0 6 2 10 4 10 3 0 8 -4 11 -10z m145 0 c0 -5 -4 -10 -10
-10 -5 0 -10 5 -10 10 0 6 5 10 10 10 6 0 10 -4 10 -10z m-460 -51 c-7 -11
-14 -19 -16 -16 -7 7 7 37 17 37 6 0 5 -9 -1 -21z m1161 -8 c4 7 12 10 16 5 4
-4 0 -13 -10 -20 -9 -7 -17 -21 -17 -30 0 -10 -4 -14 -10 -11 -6 3 -10 -4 -10
-17 0 -18 2 -20 10 -8 8 13 10 12 10 -2 0 -10 -4 -18 -10 -18 -5 0 -7 -6 -4
-13 3 -8 -1 -14 -9 -14 -9 0 -14 12 -15 33 -1 17 -2 36 -3 40 -4 16 13 44 22
38 5 -3 9 3 10 13 0 12 2 14 6 4 4 -11 7 -11 14 0z m69 -40 c0 -14 -7 -35 -15
-45 -22 -28 -18 -38 8 -25 15 9 12 3 -10 -18 -31 -30 -44 -51 -23 -38 19 12
10 -7 -19 -40 -16 -18 -30 -37 -32 -42 -4 -9 -65 -53 -74 -53 -2 0 15 26 38
58 58 76 57 73 68 144 14 90 17 97 39 91 14 -4 20 -14 20 -32z m1921 2 c-12
-20 -14 -14 -5 12 4 9 9 14 11 11 3 -2 0 -13 -6 -23z m-1225 8 c5 -5 18 -11
29 -13 15 -3 9 -9 -28 -27 -38 -18 -52 -33 -69 -70 -12 -25 -25 -48 -29 -51
-4 -3 -9 -14 -12 -25 -4 -18 -5 -18 -6 3 -1 19 -7 22 -38 22 -21 -1 -67 -7
-103 -15 -36 -8 -74 -14 -85 -14 -20 0 -20 0 -1 14 10 8 42 22 70 31 85 29
178 73 172 83 -4 5 -2 12 4 16 5 3 10 1 10 -4 0 -18 24 -12 43 9 21 25 22 31
2 24 -11 -5 -13 -2 -9 10 7 17 34 21 50 7z m624 -40 c0 -11 -3 -22 -7 -24 -5
-3 -8 6 -8 19 0 13 3 24 8 24 4 0 7 -9 7 -19z m-2573 -33 c-3 -8 -6 -5 -6 6
-1 11 2 17 5 13 3 -3 4 -12 1 -19z m864 -69 c6 -13 7 -19 1 -15 -6 3 -15 -6
-20 -21 -6 -16 -11 -21 -11 -11 -1 9 -6 18 -12 20 -9 3 -9 10 0 26 15 28 27
28 42 1z m656 -31 c-3 -7 -5 -2 -5 12 0 14 2 19 5 13 2 -7 2 -19 0 -25z m-77
-55 c-1 -5 -7 -19 -15 -33 -17 -30 -19 -86 -4 -145 15 -61 7 -75 -20 -32 -28
46 -32 137 -7 185 14 28 47 45 46 25z m440 -1 c-19 -2 -41 -10 -47 -19 -12
-16 -13 -15 -13 0 0 9 -4 17 -10 17 -5 0 -10 -4 -10 -8 0 -5 -47 -13 -105 -18
-94 -8 -104 -7 -108 8 -3 9 -3 18 -2 20 2 2 77 3 167 3 90 1 147 -1 128 -3z
m-307 -199 c3 -40 1 -53 -9 -53 -16 0 -21 21 -28 118 -3 44 0 84 6 100 12 28
15 10 31 -165z m-473 132 c0 -8 -2 -15 -4 -15 -2 0 -12 -3 -21 -6 -15 -6 -15
-4 -4 15 16 25 29 27 29 6z m877 9 c-4 -4 -42 -11 -84 -15 -125 -13 -173 -21
-173 -29 0 -4 -6 -7 -12 -7 -7 0 -34 -3 -61 -7 -38 -6 -48 -4 -53 9 -4 9 -5
18 -2 20 2 2 51 11 108 18 109 15 288 22 277 11z m-50 -60 c-3 -3 -12 -4 -19
-1 -8 3 -5 6 6 6 11 1 17 -2 13 -5z m-182 -14 c-4 -6 6 -7 27 -4 18 4 38 7 43
8 6 0 9 -9 8 -21 -2 -13 4 -23 15 -26 12 -3 10 -5 -6 -6 -15 -1 -26 6 -29 17
-3 14 -14 18 -46 17 -23 0 -47 -4 -54 -8 -14 -9 -27 8 -18 23 3 6 20 10 36 10
17 0 28 -4 24 -10z m-1045 -48 c0 -15 -2 -15 -10 -2 -13 20 -13 33 0 25 6 -3
10 -14 10 -23z m-790 -42 c0 -5 -4 -10 -10 -10 -5 0 -10 5 -10 10 0 6 5 10 10
10 6 0 10 -4 10 -10z m1735 0 c-3 -5 -14 -10 -23 -9 -14 0 -13 2 3 9 27 11 27
11 20 0z m41 -29 c-14 -15 -23 -18 -41 -11 -13 5 -26 7 -29 4 -3 -2 -4 -1 -1
3 3 4 18 9 33 11 15 2 29 5 31 8 15 14 21 0 7 -15z m-1823 2 c-7 -2 -19 -2
-25 0 -7 3 -2 5 12 5 14 0 19 -2 13 -5z m750 -73 c-3 -12 -8 -19 -11 -16 -5 6
5 36 12 36 2 0 2 -9 -1 -20z m-258 0 c3 -5 1 -10 -4 -10 -6 0 -11 5 -11 10 0
6 2 10 4 10 3 0 8 -4 11 -10z m1660 -20 c16 -10 46 -21 65 -25 56 -11 70 -16
70 -26 0 -5 -7 -9 -15 -9 -8 0 -15 -7 -15 -15 0 -8 -5 -15 -11 -15 -6 0 -9 -9
-6 -20 4 -17 0 -20 -24 -20 -16 0 -29 2 -29 5 0 3 19 23 42 45 l43 40 -30 1
c-46 2 -59 -1 -71 -16 -6 -8 -23 -19 -37 -24 -15 -6 -27 -17 -27 -25 0 -8 -8
-13 -17 -12 -16 3 -19 9 -14 34 0 4 21 16 46 26 25 11 45 23 45 28 0 13 -47 9
-62 -5 -7 -8 -19 -12 -27 -9 -7 2 -16 1 -20 -4 -3 -5 -26 -19 -51 -32 l-45
-23 40 36 c21 19 48 37 60 40 79 15 81 16 62 27 -10 5 -43 8 -73 6 -51 -3 -69
4 -41 16 22 10 111 -5 142 -24z m-597 -4 c-14 -14 -28 -31 -31 -38 -2 -7 -8
-10 -12 -5 -9 8 43 67 59 67 6 0 -1 -11 -16 -24z m-1810 -8 c-3 -7 -11 -13
-18 -13 -7 0 -15 6 -17 13 -3 7 4 12 17 12 13 0 20 -5 18 -12z m726 -24 c3 -8
2 -12 -4 -9 -6 3 -10 10 -10 16 0 14 7 11 14 -7z m150 1 c3 -8 1 -15 -4 -15
-6 0 -10 7 -10 15 0 8 2 15 4 15 2 0 6 -7 10 -15z m-368 -56 c-12 -28 -15 -30
-15 -12 -1 12 4 25 9 28 6 3 11 16 11 28 1 15 3 17 6 6 2 -9 -3 -32 -11 -50z
m245 32 c-7 -11 -9 -33 -6 -48 l5 -28 -11 28 c-9 22 -8 35 2 53 7 13 14 22 16
20 3 -2 0 -14 -6 -25z m1829 19 c-19 -13 -30 -13 -30 0 0 6 10 10 23 10 18 0
19 -2 7 -10z m-2139 -43 l-24 -22 19 27 c10 14 21 24 23 22 3 -3 -6 -15 -18
-27z m399 10 c9 -3 4 -6 -12 -6 -27 -1 -35 8 -21 22 4 4 9 3 12 -1 3 -5 13
-12 21 -15z m-199 -60 c-10 -9 -11 -8 -5 6 3 10 9 15 12 12 3 -3 0 -11 -7 -18z
m1059 9 c0 -2 -7 -7 -16 -10 -8 -3 -12 -2 -9 4 6 10 25 14 25 6z m-1649 -33
c13 -15 12 -15 -8 -4 -24 12 -29 21 -14 21 5 0 15 -7 22 -17z m529 -18 c-7 -9
-15 -13 -17 -11 -7 7 7 26 19 26 6 0 6 -6 -2 -15z m-510 -25 c0 -17 -2 -19
-14 -8 -10 9 -11 15 -2 20 16 11 16 10 16 -12z m1590 2 c0 -5 -9 -19 -19 -31
-12 -14 -18 -33 -16 -49 2 -15 2 -22 -1 -16 -3 7 -15 10 -27 8 -12 -2 -16 -2
-9 2 6 3 12 12 12 20 0 8 5 14 11 14 5 0 8 4 4 9 -3 6 3 14 12 20 10 6 14 11
10 11 -11 0 2 20 14 20 5 0 9 -4 9 -8z m-1579 -39 c-12 -20 -14 -14 -5 12 4 9
9 14 11 11 3 -2 0 -13 -6 -23z m44 -13 c-3 -5 -2 -10 4 -10 6 0 8 -7 5 -15 -4
-8 -10 -15 -16 -15 -5 0 -7 4 -3 9 3 5 0 13 -6 17 -8 4 -7 9 2 15 18 11 22 11
14 -1z m39 -47 c4 -9 2 -21 -4 -27 -7 -7 -10 -7 -10 1 0 6 -3 18 -6 27 -3 9
-2 16 4 16 5 0 13 -8 16 -17z m1284 -20 c-15 -18 -21 -9 -13 18 6 16 9 18 16
8 4 -8 3 -19 -3 -26z m-1223 -8 c30 -31 32 -39 5 -25 -11 6 -20 7 -20 1 0 -5
7 -12 16 -15 9 -4 15 -9 12 -11 -9 -9 -38 7 -38 20 0 7 -5 15 -11 17 -9 3 -3
38 7 38 2 0 15 -11 29 -25z m1215 -15 c13 -9 13 -10 0 -11 -8 -1 -18 -1 -22 0
-5 0 -8 -3 -8 -8 0 -5 -3 -18 -6 -28 -6 -16 -5 -16 9 2 14 17 16 18 17 3 0
-23 -18 -32 -35 -18 -11 9 -11 16 3 41 19 32 21 33 42 19z m-1270 -10 c0 -5
-2 -10 -4 -10 -3 0 -8 5 -11 10 -3 6 -1 10 4 10 6 0 11 -4 11 -10z m145 -88
c-3 -3 -11 0 -18 7 -9 10 -8 11 6 5 10 -3 15 -9 12 -12z m555 8 c0 -5 -7 -10
-15 -10 -8 0 -15 5 -15 10 0 6 7 10 15 10 8 0 15 -4 15 -10z m30 -16 c0 -8 -5
-12 -10 -9 -6 4 -8 11 -5 16 9 14 15 11 15 -7z m147 -10 c2 -10 0 -13 -3 -6
-3 6 -12 12 -20 12 -8 0 -14 4 -14 9 0 18 35 4 37 -15z m-212 -4 c3 -5 -1 -10
-9 -10 -9 0 -16 -4 -16 -10 0 -5 -5 -10 -12 -10 -6 0 -8 3 -5 7 4 3 -1 12 -11
19 -15 12 -14 13 15 14 17 0 35 -4 38 -10z m110 -12 l-6 -23 20 23 c12 13 25
20 35 16 23 -9 20 -27 -4 -21 -13 3 -21 -1 -26 -15 -8 -26 0 -32 26 -18 12 6
24 9 27 6 3 -3 -2 -9 -11 -12 -13 -5 -14 -9 -5 -14 8 -6 5 -12 -12 -20 -17
-10 -24 -10 -27 -1 -2 6 -11 11 -19 11 -13 0 -13 3 -3 15 9 11 9 15 1 15 -6 0
-14 -7 -18 -16 -3 -8 -12 -13 -19 -10 -8 3 -14 1 -14 -4 0 -6 15 -10 32 -10
l33 0 -37 -20 c-21 -11 -43 -18 -50 -16 -7 1 -10 1 -5 -1 11 -7 8 -31 -5 -39
-7 -5 -8 -3 -3 6 6 10 4 12 -9 7 -10 -4 -22 -7 -27 -7 -5 0 -9 -4 -9 -10 0 -5
8 -7 18 -4 16 5 16 5 -1 -6 -9 -6 -22 -8 -28 -5 -5 4 -15 2 -22 -4 -7 -6 -18
-6 -26 -1 -12 7 -12 11 2 24 11 11 17 12 19 4 3 -9 6 -9 12 0 9 15 -23 29 -33
15 -3 -6 -12 -12 -19 -14 -10 -3 -8 -11 7 -31 25 -31 26 -38 6 -38 -8 0 -15
-5 -15 -11 0 -5 4 -7 10 -4 6 3 7 -1 4 -9 -8 -22 -9 -21 -31 23 -13 26 -17 45
-11 55 6 11 5 16 -5 16 -14 0 -17 -34 -4 -46 4 -4 7 -11 7 -16 0 -5 -7 -2 -16
6 -8 9 -12 21 -8 28 5 8 2 9 -12 4 -15 -6 -17 -5 -6 5 17 18 15 29 -5 22 -16
-6 -16 -5 -4 11 13 15 13 19 0 27 -11 7 -11 9 4 9 11 0 17 -8 17 -21 0 -11 5
-17 10 -14 6 4 8 10 5 15 -3 4 2 11 11 14 12 5 15 2 10 -10 -4 -11 3 -8 23 8
15 13 27 26 25 29 -2 3 10 16 26 28 17 12 30 17 30 12 0 -5 -6 -12 -12 -14 -8
-3 -5 -6 5 -6 25 -1 59 18 52 30 -4 5 -2 9 4 9 5 0 16 3 25 6 11 4 16 0 17
-12 0 -11 3 -14 6 -6 2 6 10 9 15 6 7 -4 8 -2 4 4 -4 7 -1 18 6 26 18 21 20
20 13 -6z m335 2 c0 -5 -5 -10 -11 -10 -5 0 -7 5 -4 10 3 6 8 10 11 10 2 0 4
-4 4 -10z m-763 -15 c0 -8 -4 -12 -9 -9 -5 3 -6 10 -3 15 9 13 12 11 12 -6z
m93 -5 c0 -5 -9 -14 -20 -20 -14 -7 -20 -7 -20 0 0 5 7 10 15 10 8 0 15 5 15
10 0 6 2 10 5 10 3 0 5 -4 5 -10z m114 -5 c-7 -16 -24 -21 -24 -6 0 8 7 13 27
20 1 1 0 -6 -3 -14z m36 1 c0 -3 -4 -8 -10 -11 -5 -3 -10 -1 -10 4 0 6 5 11
10 11 6 0 10 -2 10 -4z m80 -6 c0 -5 -5 -10 -11 -10 -5 0 -7 5 -4 10 3 6 8 10
11 10 2 0 4 -4 4 -10z m670 0 c0 -5 -4 -10 -10 -10 -5 0 -10 5 -10 10 0 6 5
10 10 10 6 0 10 -4 10 -10z m-825 -10 c3 -5 1 -10 -4 -10 -6 0 -11 5 -11 10 0
6 2 10 4 10 3 0 8 -4 11 -10z m605 -10 c-8 -5 -19 -10 -25 -10 -5 0 -3 5 5 10
8 5 20 10 25 10 6 0 3 -5 -5 -10z m-677 -35 c-19 -13 -24 -13 -50 0 l-28 15
50 0 c47 0 48 -1 28 -15z m112 6 c3 -5 1 -12 -5 -16 -5 -3 -10 -2 -10 2 0 5
-16 7 -35 5 -21 -3 -35 0 -35 7 0 13 76 15 85 2z m575 -11 c0 -5 -2 -10 -4
-10 -3 0 -8 5 -11 10 -3 6 -1 10 4 10 6 0 11 -4 11 -10z m-1342 -47 c-11 -14
-11 -15 2 -11 8 2 21 -1 28 -9 11 -10 9 -17 -9 -35 -12 -13 -19 -18 -15 -11 3
6 -1 13 -11 16 -14 4 -13 5 5 6 27 1 30 21 2 21 -11 0 -20 2 -20 4 0 2 -3 12
-6 20 -5 12 -2 15 10 10 12 -5 16 0 17 17 1 18 2 20 6 6 3 -10 -1 -25 -9 -34z
m677 17 c3 -6 -4 -10 -17 -10 -18 0 -20 2 -8 10 19 12 18 12 25 0z m-705 -64
c0 -3 -4 -8 -10 -11 -5 -3 -10 -1 -10 4 0 6 5 11 10 11 6 0 10 -2 10 -4z m15
-49 c-4 -8 -15 -15 -26 -14 -23 2 -24 10 -3 32 19 19 38 7 29 -18z m60 24 c3
-5 1 -12 -5 -16 -5 -3 -10 1 -10 9 0 18 6 21 15 7z m-25 -31 c0 -5 -5 -10 -11
-10 -5 0 -7 5 -4 10 3 6 8 10 11 10 2 0 4 -4 4 -10z m300 -20 c-19 -13 -30
-13 -30 0 0 6 10 10 23 10 18 0 19 -2 7 -10z m500 -12 c0 -6 -6 -5 -15 2 -8 7
-15 14 -15 16 0 2 7 1 15 -2 8 -4 15 -11 15 -16z m-757 -15 c-9 -7 -25 -13
-35 -13 -10 0 -18 6 -18 13 0 7 14 12 35 12 31 0 33 -2 18 -12z m-79 -10 c19
-10 19 -11 -2 -22 -13 -7 -22 -8 -22 -2 0 5 6 12 13 14 6 3 -1 6 -16 6 -16 1
-26 5 -23 10 7 11 24 9 50 -6z m771 -13 c-3 -5 -11 -10 -16 -10 -6 0 -7 5 -4
10 3 6 11 10 16 10 6 0 7 -4 4 -10z m-810 -10 c3 -5 1 -10 -4 -10 -6 0 -11 5
-11 10 0 6 2 10 4 10 3 0 8 -4 11 -10z"/>
<path d="M1319 2314 c-5 -15 -7 -29 -5 -32 10 -9 36 20 36 39 0 28 -19 23 -31
-7z"/>
<path d="M2750 1860 c0 -5 5 -10 10 -10 6 0 10 5 10 10 0 6 -4 10 -10 10 -5 0
-10 -4 -10 -10z"/>
<path d="M1935 1860 c-3 -5 -1 -10 4 -10 6 0 11 5 11 10 0 6 -2 10 -4 10 -3 0
-8 -4 -11 -10z"/>
<path d="M1910 1772 c6 -13 14 -21 18 -18 3 4 -2 14 -12 24 -18 16 -18 16 -6
-6z"/>
<path d="M2021 1654 c0 -11 3 -14 6 -6 3 7 2 16 -1 19 -3 4 -6 -2 -5 -13z"/>
<path d="M2015 1610 c-3 -5 -1 -10 4 -10 6 0 11 5 11 10 0 6 -2 10 -4 10 -3 0
-8 -4 -11 -10z"/>
<path d="M3015 1800 c-3 -5 -1 -10 4 -10 6 0 11 5 11 10 0 6 -2 10 -4 10 -3 0
-8 -4 -11 -10z"/>
<path d="M2463 1663 c-3 -10 -8 -22 -11 -27 -3 -5 0 -6 6 -2 7 4 12 13 12 21
0 7 6 16 13 18 9 4 9 6 -1 6 -7 1 -15 -7 -19 -16z"/>
<path d="M2357 1657 c-3 -8 1 -14 8 -14 7 0 11 6 8 14 -3 7 -6 13 -8 13 -2 0
-5 -6 -8 -13z"/>
<path d="M2490 1618 c0 -9 5 -20 10 -23 13 -8 13 5 0 25 -8 13 -10 13 -10 -2z"/>
<path d="M2192 1577 c-1 -22 1 -28 7 -18 5 7 14 10 20 7 18 -11 13 9 -7 27
-17 15 -18 14 -20 -16z"/>
<path d="M2386 1593 c-11 -11 -6 -23 9 -23 8 0 15 4 15 9 0 13 -16 22 -24 14z"/>
<path d="M2290 1551 c0 -5 5 -13 10 -16 6 -3 10 -2 10 4 0 5 -4 13 -10 16 -5
3 -10 2 -10 -4z"/>
<path d="M2263 1491 c-10 -15 -10 -20 0 -24 16 -5 40 20 32 33 -9 15 -19 12
-32 -9z"/>
<path d="M2378 1483 c7 -3 16 -2 19 1 4 3 -2 6 -13 5 -11 0 -14 -3 -6 -6z"/>
<path d="M2290 1451 c0 -9 8 -11 28 -6 42 10 45 20 7 20 -23 0 -35 -5 -35 -14z"/>
<path d="M2310 1420 c-9 -6 -10 -10 -3 -10 6 0 15 5 18 10 8 12 4 12 -15 0z"/>
<path d="M2223 1383 c4 -3 1 -13 -6 -22 -11 -14 -10 -14 5 -2 16 12 16 31 1
31 -4 0 -3 -3 0 -7z"/>
<path d="M1051 274 c0 -11 3 -14 6 -6 3 7 2 16 -1 19 -3 4 -6 -2 -5 -13z"/>
<path d="M1005 269 c-4 -6 -5 -12 -2 -15 2 -3 7 2 10 11 7 17 1 20 -8 4z"/>
<path d="M948 153 c7 -3 16 -2 19 1 4 3 -2 6 -13 5 -11 0 -14 -3 -6 -6z"/>
<path d="M140 129 c0 -5 5 -7 10 -4 6 3 10 8 10 11 0 2 -4 4 -10 4 -5 0 -10
-5 -10 -11z"/>
<path d="M490 2880 c0 -6 17 -10 37 -10 43 0 41 5 -4 13 -19 4 -33 2 -33 -3z"/>
<path d="M530 2850 c19 -13 30 -13 30 0 0 6 -10 10 -22 10 -19 0 -20 -2 -8
-10z"/>
<path d="M1097 2853 c-3 -5 -1 -17 4 -28 7 -17 8 -17 8 8 1 27 -4 34 -12 20z"/>
<path d="M1131 2738 c17 -34 19 -34 19 -5 0 18 -5 27 -15 27 -13 0 -14 -4 -4
-22z"/>
<path d="M918 2643 c12 -2 30 -2 40 0 9 3 -1 5 -23 4 -22 0 -30 -2 -17 -4z"/>
<path d="M280 2366 c0 -8 -6 -19 -13 -23 -12 -8 -41 -63 -32 -63 11 0 63 90
54 95 -5 4 -9 -1 -9 -9z"/>
<path d="M70 1972 c6 -12 8 -27 5 -32 -3 -6 -1 -10 5 -10 6 0 15 -10 20 -22 9
-23 9 -23 9 2 1 14 -11 39 -25 55 -19 22 -22 24 -14 7z"/>
<path d="M75 1749 c-11 -17 1 -21 15 -4 8 9 8 15 2 15 -6 0 -14 -5 -17 -11z"/>
<path d="M3520 1715 c0 -8 2 -15 4 -15 2 0 6 7 10 15 3 8 1 15 -4 15 -6 0 -10
-7 -10 -15z"/>
<path d="M3245 1670 c-3 -5 -1 -10 5 -10 6 0 8 -4 5 -10 -3 -6 1 -7 10 -4 12
5 13 9 4 20 -14 17 -16 17 -24 4z"/>
<path d="M3580 1374 c0 -8 5 -12 10 -9 6 3 10 10 10 16 0 5 -4 9 -10 9 -5 0
-10 -7 -10 -16z"/>
<path d="M3672 1325 c-12 -14 -22 -27 -22 -29 0 -7 40 6 41 13 0 3 2 14 4 24
4 22 3 22 -23 -8z"/>
<path d="M3780 1220 c0 -5 9 -10 21 -10 11 0 17 5 14 10 -3 6 -13 10 -21 10
-8 0 -14 -4 -14 -10z"/>
<path d="M938 1166 c-35 -12 -35 -24 -2 -36 21 -9 29 -7 40 7 7 10 14 21 14
24 0 13 -25 15 -52 5z"/>
<path d="M1040 1170 c0 -5 5 -10 10 -10 6 0 10 5 10 10 0 6 -4 10 -10 10 -5 0
-10 -4 -10 -10z"/>
<path d="M881 1144 c0 -11 3 -14 6 -6 3 7 2 16 -1 19 -3 4 -6 -2 -5 -13z"/>
<path d="M1023 1141 c0 -11 5 -17 9 -15 11 7 10 34 -1 34 -6 0 -9 -9 -8 -19z"/>
<path d="M1051 1134 c0 -11 3 -14 6 -6 3 7 2 16 -1 19 -3 4 -6 -2 -5 -13z"/>
<path d="M546 1095 c-3 -8 -1 -15 5 -15 6 0 7 -4 4 -10 -9 -15 9 -12 31 5 16
13 16 14 2 9 -12 -4 -18 -1 -18 10 0 20 -16 21 -24 1z"/>
<path d="M470 1080 c0 -5 4 -10 9 -10 6 0 13 5 16 10 3 6 -1 10 -9 10 -9 0
-16 -4 -16 -10z"/>
<path d="M1316 1075 c4 -8 10 -15 15 -15 4 0 6 7 3 15 -4 8 -10 15 -15 15 -4
0 -6 -7 -3 -15z"/>
<path d="M497 1053 c-13 -14 -17 -14 -17 -3 0 10 -3 11 -11 3 -16 -16 -1 -37
16 -23 8 7 18 9 23 6 6 -3 12 3 15 14 6 25 -3 26 -26 3z"/>
<path d="M1154 984 c17 -16 36 -11 36 9 0 8 -3 8 -9 -2 -6 -9 -11 -10 -15 -2
-4 6 -12 11 -17 11 -6 0 -3 -7 5 -16z"/>
<path d="M190 959 c0 -5 5 -7 10 -4 6 3 10 8 10 11 0 2 -4 4 -10 4 -5 0 -10
-5 -10 -11z"/>
<path d="M0 938 c0 -24 12 -23 27 1 11 17 10 20 -7 18 -12 -1 -20 -9 -20 -19z"/>
<path d="M1130 921 c-7 -13 -7 -22 0 -26 5 -3 10 -11 10 -16 0 -6 -4 -7 -10
-4 -5 3 -10 -3 -10 -14 0 -14 5 -19 15 -15 16 7 21 54 5 54 -5 0 -7 7 -3 16 5
13 7 13 14 2 7 -10 9 -9 9 5 0 23 -17 22 -30 -2z"/>
<path d="M1176 913 c-6 -14 -5 -15 5 -6 7 7 10 15 7 18 -3 3 -9 -2 -12 -12z"/>
<path d="M690 889 c0 -5 5 -7 10 -4 6 3 10 8 10 11 0 2 -4 4 -10 4 -5 0 -10
-5 -10 -11z"/>
<path d="M1164 879 c-3 -6 -2 -15 3 -20 5 -5 9 -1 9 11 0 23 -2 24 -12 9z"/>
<path d="M727 843 c-4 -3 -7 -11 -7 -17 0 -6 5 -5 12 2 6 6 9 14 7 17 -3 3 -9
2 -12 -2z"/>
<path d="M2150 810 c0 -5 5 -10 10 -10 6 0 10 5 10 10 0 6 -4 10 -10 10 -5 0
-10 -4 -10 -10z"/>
<path d="M2190 800 c-8 -5 -12 -12 -9 -15 8 -8 39 5 39 16 0 11 -11 11 -30 -1z"/>
<path d="M2313 780 c-12 -18 0 -40 14 -26 4 3 0 6 -8 6 -8 0 -4 8 11 20 17 13
20 20 10 20 -8 0 -21 -9 -27 -20z"/>
<path d="M2152 750 c-7 -11 -8 -20 -3 -20 9 0 24 30 18 36 -1 2 -8 -6 -15 -16z"/>
<path d="M2358 763 c7 -3 16 -2 19 1 4 3 -2 6 -13 5 -11 0 -14 -3 -6 -6z"/>
<path d="M2048 736 c-8 -7 -25 -17 -38 -21 l-25 -9 25 -6 c19 -5 27 -2 33 14
6 16 10 17 16 7 6 -9 10 -7 14 8 6 24 -5 27 -25 7z"/>
<path d="M2181 734 c0 -11 3 -14 6 -6 3 7 2 16 -1 19 -3 4 -6 -2 -5 -13z"/>
<path d="M2293 716 c7 -15 14 -20 18 -14 4 6 1 17 -6 25 -20 20 -24 16 -12
-11z"/>
<path d="M2311 737 c2 -1 12 -9 22 -16 15 -12 17 -12 11 3 -3 9 -13 16 -22 16
-8 0 -13 -1 -11 -3z"/>
<path d="M800 721 c0 -6 4 -13 10 -16 6 -3 7 1 4 9 -7 18 -14 21 -14 7z"/>
<path d="M2112 718 c-14 -14 -17 -52 -3 -44 7 5 22 56 17 56 -1 0 -7 -5 -14
-12z"/>
<path d="M2890 720 c0 -5 5 -10 10 -10 6 0 10 5 10 10 0 6 -4 10 -10 10 -5 0
-10 -4 -10 -10z"/>
<path d="M3 677 c-1 -30 -1 -31 8 -8 5 14 6 28 2 32 -4 4 -9 -6 -10 -24z"/>
<path d="M2327 693 c-4 -3 -7 -11 -7 -17 0 -6 5 -5 12 2 6 6 9 14 7 17 -3 3
-9 2 -12 -2z"/>
<path d="M1986 675 c4 -8 11 -15 16 -15 6 0 5 6 -2 15 -7 8 -14 15 -16 15 -2
0 -1 -7 2 -15z"/>
<path d="M2435 660 c-3 -5 -1 -10 4 -10 6 0 11 5 11 10 0 6 -2 10 -4 10 -3 0
-8 -4 -11 -10z"/>
<path d="M2764 653 c1 -2 -19 -26 -45 -54 -26 -28 -61 -79 -79 -112 -18 -34
-35 -64 -39 -67 -19 -15 -85 -126 -120 -202 -54 -116 -54 -161 0 -53 22 44 44
82 49 83 6 2 8 8 5 13 -7 10 95 176 163 265 25 33 63 73 84 88 46 33 48 43 9
42 -16 -1 -28 -2 -27 -3z"/>
<path d="M2438 633 c7 -3 16 -2 19 1 4 3 -2 6 -13 5 -11 0 -14 -3 -6 -6z"/>
<path d="M2545 627 c11 -9 15 -19 10 -28 -6 -11 -5 -11 5 -2 16 15 6 43 -17
43 -15 0 -15 -1 2 -13z"/>
<path d="M2449 587 c4 -4 18 -3 32 2 23 9 22 9 -8 8 -18 -1 -28 -6 -24 -10z"/>
<path d="M2518 583 c7 -3 16 -2 19 1 4 3 -2 6 -13 5 -11 0 -14 -3 -6 -6z"/>
<path d="M3058 566 c-10 -7 -15 -15 -12 -18 3 -3 -9 -12 -25 -19 -17 -8 -31
-22 -31 -31 0 -15 4 -15 30 -6 25 8 28 13 19 24 -12 15 -10 16 64 17 40 1 45
8 21 28 -22 18 -46 20 -66 5z"/>
<path d="M1964 545 c-8 -20 4 -65 17 -65 6 0 6 7 -2 21 -6 12 -9 30 -6 40 6
23 -1 26 -9 4z"/>
<path d="M1916 533 c-6 -14 -5 -15 5 -6 7 7 10 15 7 18 -3 3 -9 -2 -12 -12z"/>
<path d="M2890 463 c-35 -25 -77 -50 -92 -55 -15 -6 -26 -14 -23 -18 3 -5 -3
-14 -12 -20 -15 -9 -14 -10 7 -4 14 4 27 10 30 13 3 4 34 22 70 40 36 19 67
38 68 43 2 4 12 8 23 8 12 0 19 7 19 20 0 30 -18 24 -90 -27z"/>
<path d="M2003 468 c2 -12 8 -23 14 -25 14 -5 12 21 -4 35 -11 10 -12 9 -10
-10z"/>
<path d="M3165 479 c-4 -6 -13 -8 -21 -5 -17 7 -18 -6 -1 -23 10 -10 6 -11
-18 -6 -27 5 -28 4 -8 -6 17 -9 28 -8 52 4 20 10 29 11 25 4 -5 -9 -3 -9 6 0
11 10 11 15 0 28 -15 18 -26 19 -35 4z"/>
<path d="M2076 452 c-6 -10 30 -9 40 1 4 4 -2 7 -14 7 -11 0 -23 -4 -26 -8z"/>
<path d="M3048 426 c-10 -7 -15 -16 -12 -19 9 -8 44 11 44 23 0 13 -12 12 -32
-4z"/>
<path d="M2998 413 c7 -3 16 -2 19 1 4 3 -2 6 -13 5 -11 0 -14 -3 -6 -6z"/>
<path d="M3150 409 c0 -5 5 -7 10 -4 6 3 10 8 10 11 0 2 -4 4 -10 4 -5 0 -10
-5 -10 -11z"/>
<path d="M3215 402 c1 -9 8 -16 14 -14 11 2 41 -20 41 -30 0 -2 -18 -4 -39 -4
-31 0 -38 3 -34 15 2 9 -1 7 -8 -4 -7 -11 -17 -24 -23 -28 -6 -5 10 -6 37 -2
39 5 47 3 47 -9 0 -9 -3 -17 -7 -17 -5 -1 -17 -3 -28 -4 -11 -2 -40 -10 -64
-18 -25 -9 -48 -14 -53 -11 -4 3 -8 1 -8 -4 0 -12 29 -24 40 -17 5 3 20 1 34
-5 18 -6 26 -6 26 1 0 6 5 7 10 4 6 -4 7 -12 3 -18 -3 -7 3 -4 14 6 11 9 22
15 25 12 3 -3 16 -8 28 -10 12 -2 25 -7 29 -11 3 -4 -1 -5 -10 -2 -9 4 -22 2
-30 -3 -11 -7 -10 -9 6 -10 l20 0 -20 -9 c-14 -6 -15 -9 -4 -9 8 -1 21 5 27
11 8 8 15 9 20 3 4 -6 16 -10 28 -11 18 0 21 6 22 47 1 36 -3 49 -16 55 -23
10 -28 11 -59 14 -19 1 -22 4 -10 7 20 5 21 8 5 36 -22 42 -69 70 -63 39z"/>
<path d="M2953 399 c-5 -3 -25 -12 -46 -19 -21 -7 -41 -18 -44 -26 -3 -8 -9
-12 -13 -9 -4 3 -10 -4 -13 -15 -3 -11 -1 -20 4 -20 5 0 9 3 9 8 0 4 10 12 23
19 65 33 95 46 122 52 l30 7 -32 5 c-18 3 -36 2 -40 -2z"/>
<path d="M410 370 c0 -5 5 -10 11 -10 5 0 7 5 4 10 -3 6 -8 10 -11 10 -2 0 -4
-4 -4 -10z"/>
<path d="M2420 350 c0 -5 5 -10 11 -10 5 0 7 5 4 10 -3 6 -8 10 -11 10 -2 0
-4 -4 -4 -10z"/>
<path d="M462 329 c13 -10 28 -23 34 -27 22 -19 56 -33 67 -29 7 3 -2 11 -20
18 -17 7 -37 22 -43 33 -6 12 -22 22 -36 22 l-25 2 23 -19z"/>
<path d="M2784 309 c-16 -17 -45 -40 -64 -51 -40 -24 -100 -78 -100 -90 0 -11
29 5 55 29 11 11 48 38 81 60 34 23 64 51 67 62 7 29 -4 26 -39 -10z"/>
<path d="M2690 315 c-7 -8 -8 -15 -2 -15 5 0 15 7 22 15 7 8 8 15 2 15 -5 0
-15 -7 -22 -15z"/>
<path d="M2750 319 c0 -5 5 -7 10 -4 6 3 10 8 10 11 0 2 -4 4 -10 4 -5 0 -10
-5 -10 -11z"/>
<path d="M1766 312 c2 -2 -2 -14 -8 -26 -10 -20 -10 -20 8 -4 12 12 15 21 8
27 -6 5 -9 6 -8 3z"/>
<path d="M2565 299 c-4 -6 -5 -12 -2 -15 2 -3 7 2 10 11 7 17 1 20 -8 4z"/>
<path d="M2636 285 c-3 -8 -1 -15 4 -15 6 0 10 7 10 15 0 8 -2 15 -4 15 -2 0
-6 -7 -10 -15z"/>
<path d="M2600 250 c-13 -8 -13 -10 2 -10 9 0 20 5 23 10 8 13 -5 13 -25 0z"/>
<path d="M2660 250 c-9 -6 -10 -10 -3 -10 6 0 15 5 18 10 8 12 4 12 -15 0z"/>
<path d="M1430 239 c0 -5 5 -7 10 -4 6 3 10 8 10 11 0 2 -4 4 -10 4 -5 0 -10
-5 -10 -11z"/>
<path d="M2886 239 c2 -4 -2 -10 -8 -12 -8 -4 -9 -6 -2 -6 6 -1 17 5 23 12 8
10 7 14 -4 14 -8 0 -12 -4 -9 -8z"/>
<path d="M2824 226 c-10 -8 -17 -17 -14 -19 3 -3 16 3 29 14 27 22 15 26 -15
5z"/>
<path d="M2189 221 c11 -7 10 -11 -5 -20 -14 -8 -15 -11 -4 -11 10 0 7 -7 -10
-19 -21 -17 -22 -19 -6 -18 20 2 26 -26 30 -125 1 -24 5 -28 30 -28 23 0 26 3
17 14 -8 10 -9 16 -1 21 5 3 10 11 10 16 0 6 -4 8 -9 4 -5 -3 -15 20 -21 50
-6 30 -17 55 -23 55 -8 0 -8 3 -2 8 6 4 11 19 12 35 1 19 -3 27 -15 27 -14 0
-14 -2 -3 -9z"/>
<path d="M1710 189 c0 -5 5 -7 10 -4 6 3 10 8 10 11 0 2 -4 4 -10 4 -5 0 -10
-5 -10 -11z"/>
<path d="M1750 191 c0 -5 5 -13 10 -16 6 -3 10 -2 10 4 0 5 -4 13 -10 16 -5 3
-10 2 -10 -4z"/>
<path d="M3320 189 c0 -6 -5 -7 -12 -3 -8 5 -9 2 -5 -10 4 -10 7 -25 7 -33 0
-9 3 -14 6 -10 4 3 29 -3 57 -13 28 -11 53 -17 56 -14 3 3 -1 17 -9 31 -15 27
-100 71 -100 52z"/>
<path d="M2830 180 c-9 -6 -10 -10 -3 -10 6 0 15 5 18 10 8 12 4 12 -15 0z"/>
<path d="M1446 163 c-6 -14 -5 -15 5 -6 7 7 10 15 7 18 -3 3 -9 -2 -12 -12z"/>
<path d="M1510 176 c0 -2 7 -7 16 -10 8 -3 12 -2 9 4 -6 10 -25 14 -25 6z"/>
<path d="M557 159 c7 -7 15 -10 18 -7 3 3 -2 9 -12 12 -14 6 -15 5 -6 -5z"/>
<path d="M1670 149 c0 -5 5 -7 10 -4 6 3 10 8 10 11 0 2 -4 4 -10 4 -5 0 -10
-5 -10 -11z"/>
<path d="M2425 149 c-4 -6 -5 -12 -2 -15 2 -3 7 2 10 11 7 17 1 20 -8 4z"/>
<path d="M1468 143 c6 -2 18 -2 25 0 6 3 1 5 -13 5 -14 0 -19 -2 -12 -5z"/>
<path d="M2890 130 c0 -5 5 -10 11 -10 5 0 7 5 4 10 -3 6 -8 10 -11 10 -2 0
-4 -4 -4 -10z"/>
<path d="M2925 130 c-3 -5 -1 -10 4 -10 6 0 11 5 11 10 0 6 -2 10 -4 10 -3 0
-8 -4 -11 -10z"/>
<path d="M3220 130 c0 -5 5 -10 10 -10 6 0 10 5 10 10 0 6 -4 10 -10 10 -5 0
-10 -4 -10 -10z"/>
<path d="M1483 123 c-21 -8 -15 -22 7 -16 11 3 20 9 20 14 0 10 -8 10 -27 2z"/>
<path d="M2847 103 c3 -10 3 -15 -1 -11 -10 8 -66 -11 -66 -23 0 -12 5 -11 45
5 35 15 44 29 25 41 -6 4 -7 -1 -3 -12z"/>
<path d="M3030 110 c-9 -6 -10 -10 -3 -10 6 0 15 5 18 10 8 12 4 12 -15 0z"/>
<path d="M3158 103 c7 -3 16 -2 19 1 4 3 -2 6 -13 5 -11 0 -14 -3 -6 -6z"/>
<path d="M3257 99 c7 -7 15 -10 18 -7 3 3 -2 9 -12 12 -14 6 -15 5 -6 -5z"/>
<path d="M3308 103 c6 -2 12 -11 12 -19 0 -9 5 -12 10 -9 6 3 14 -4 19 -17 8
-18 10 -19 10 -5 1 10 5 16 11 12 5 -3 7 -13 4 -23 -5 -14 -4 -15 5 -2 15 21
14 39 -6 58 -16 16 -16 16 -10 0 8 -22 -6 -23 -27 -3 -8 8 -21 15 -28 14 -10
0 -10 -2 0 -6z"/>
<path d="M1435 90 c4 -6 11 -8 16 -5 14 9 11 15 -7 15 -8 0 -12 -5 -9 -10z"/>
<path d="M2539 83 c-13 -16 -12 -17 4 -4 16 13 21 21 13 21 -2 0 -10 -8 -17
-17z"/>
<path d="M820 79 c0 -5 5 -7 10 -4 6 3 10 8 10 11 0 2 -4 4 -10 4 -5 0 -10 -5
-10 -11z"/>
<path d="M2645 80 c-8 -13 5 -13 25 0 13 8 13 10 -2 10 -9 0 -20 -4 -23 -10z"/>
<path d="M2980 75 c-7 -9 -8 -15 -2 -15 5 0 12 7 16 15 3 8 4 15 2 15 -2 0 -9
-7 -16 -15z"/>
<path d="M3098 83 c7 -3 16 -2 19 1 4 3 -2 6 -13 5 -11 0 -14 -3 -6 -6z"/>
<path d="M3402 84 c4 -4 3 -15 -3 -25 -6 -13 -6 -19 1 -19 5 0 10 4 10 10 0 5
16 1 35 -10 40 -22 46 -13 12 16 -21 19 -70 44 -55 28z"/>
<path d="M1475 70 c3 -5 8 -10 11 -10 2 0 4 5 4 10 0 6 -5 10 -11 10 -5 0 -7
-4 -4 -10z"/>
<path d="M2749 75 c-1 -3 -2 -8 -3 -12 -1 -5 -5 -15 -11 -23 -7 -12 -6 -13 7
-3 8 7 18 10 21 7 3 -4 5 3 4 15 -1 18 -15 30 -18 16z"/>
<path d="M3170 71 c0 -7 -5 -9 -12 -5 -7 5 -8 3 -3 -6 6 -10 3 -12 -13 -8 -12
4 -20 2 -16 -3 9 -15 44 -10 51 6 3 9 3 19 -1 22 -3 4 -6 1 -6 -6z"/>
<path d="M3195 70 c-3 -5 1 -10 9 -10 9 0 16 5 16 10 0 6 -4 10 -9 10 -6 0
-13 -4 -16 -10z"/>
<path d="M625 50 c-3 -5 -1 -10 4 -10 6 0 11 5 11 10 0 6 -2 10 -4 10 -3 0 -8
-4 -11 -10z"/>
<path d="M3100 55 c-1 -5 -2 -14 -1 -19 1 -5 -6 -5 -16 -2 -14 6 -16 5 -5 -5
15 -16 37 2 29 23 -3 7 -6 9 -7 3z"/>
<path d="M1480 29 c0 -5 5 -7 10 -4 6 3 10 8 10 11 0 2 -4 4 -10 4 -5 0 -10
-5 -10 -11z"/>
<path d="M2966 25 c4 -8 11 -15 16 -15 6 0 5 6 -2 15 -7 8 -14 15 -16 15 -2 0
-1 -7 2 -15z"/>
<path d="M2485 19 c-4 -6 -5 -12 -2 -15 2 -3 7 2 10 11 7 17 1 20 -8 4z"/>
<path d="M2880 20 c0 -5 7 -10 16 -10 8 0 12 5 9 10 -3 6 -10 10 -16 10 -5 0
-9 -4 -9 -10z"/>
<path d="M3256 12 c-2 -4 4 -8 14 -8 10 0 16 4 14 8 -7 10 -21 10 -28 0z"/>
<path d="M1418 3 c7 -3 16 -2 19 1 4 3 -2 6 -13 5 -11 0 -14 -3 -6 -6z"/>
<path d="M2428 3 c7 -3 16 -2 19 1 4 3 -2 6 -13 5 -11 0 -14 -3 -6 -6z"/>
</g>
</svg>
